<?xml version="1.0" encoding="UTF-8"?>
<svg version="1.1" xmlns="http://www.w3.org/2000/svg" width="561" height="444">
<path d="M0 0 C3.92728159 0.02369439 7.85456405 0.04665598 11.78186095 0.06767678 C20.15776903 0.11253952 28.53357194 0.16318432 36.909334 0.23040229 C40.44437169 0.25875465 43.97936902 0.28461499 47.51447546 0.302706 C93.40412081 0.54622019 93.40412081 0.54622019 111.76767027 5.47968698 C112.78893004 5.73919137 113.81018981 5.99869576 114.86239684 6.26606393 C136.47836342 11.90774292 136.47836342 11.90774292 145.76767027 17.72968698 C147.45566474 18.44383848 149.14383291 19.15759389 150.83407652 19.86640573 C170.01470048 28.42987622 189.15484553 43.91258732 201.76767027 60.72968698 C201.76767027 61.38968698 201.76767027 62.04968698 201.76767027 62.72968698 C202.75767027 63.05968698 203.74767027 63.38968698 204.76767027 63.72968698 C208.57337017 68.33891052 211.81248134 73.52298311 214.67392027 78.76484323 C215.55829792 80.3535645 216.48484022 81.91876827 217.42392027 83.47578073 C218.03235777 84.48769479 218.64079527 85.49960885 219.26767027 86.54218698 C220.11845152 87.94404244 220.11845152 87.94404244 220.98642027 89.37421823 C230.18570349 106.70356972 235.01709891 126.4405239 237.76767027 145.72968698 C237.87079527 146.43367623 237.97392027 147.13766549 238.08017027 147.86298776 C240.3581376 165.43181078 239.77289012 184.39655601 236.17343199 201.72578073 C235.7847469 203.64535186 235.46402292 205.57830736 235.14657652 207.51093698 C229.86996404 238.18739216 213.83091201 267.00017495 191.76767027 288.72968698 C190.59204527 289.93624948 190.59204527 289.93624948 189.39267027 291.16718698 C186.8559531 293.64350612 184.23466064 295.93388208 181.51376402 298.20234323 C179.68898214 299.75969611 179.68898214 299.75969611 177.81454527 301.71796823 C167.5808036 311.77593953 152.27930709 320.07177661 138.76767027 324.72968698 C137.38782694 325.26373039 136.00902543 325.8004691 134.63095152 326.33906198 C113.59829013 334.35636583 91.59238255 337.92365898 69.12411559 337.84321237 C68.02996336 337.84335839 66.93581114 337.84350442 65.80850279 337.84365487 C62.23757921 337.84296526 58.6667096 337.83521799 55.09579527 337.82734323 C52.60187873 337.82547566 50.10796182 337.82405336 47.61404479 337.82305551 C41.08426948 337.819257 34.55451679 337.80944977 28.02475035 337.79835153 C21.34791563 337.78753086 14.67107382 337.78354559 7.99423277 337.7785151 C-5.08129765 337.76782487 -18.15681248 337.750976 -31.23232973 337.72968698 C-30.48481076 333.05575685 -29.23709958 331.33902705 -25.73232973 328.10468698 C-18.4442047 321.10808695 -12.23073582 313.34850362 -6.42373598 305.09296823 C-5.83398988 304.41814401 -5.83398988 304.41814401 -5.23232973 303.72968698 C-4.57232973 303.72968698 -3.91232973 303.72968698 -3.23232973 303.72968698 C-3.15240785 303.20890573 -3.07248598 302.68812448 -2.99014223 302.15156198 C-1.92684114 298.75338324 -0.0011736 295.96298558 1.89267027 292.97968698 C6.69147485 285.20261172 10.3404244 277.18594638 13.76767027 268.72968698 C14.36901793 267.35103463 14.36901793 267.35103463 14.98251402 265.94453073 C24.07764493 243.73868282 23.23898122 215.20614993 14.39267027 193.10468698 C13.5505974 191.29731105 12.67623944 189.50456627 11.76767027 187.72968698 C11.30360777 186.80156198 10.83954527 185.87343698 10.36142027 184.91718698 C7.42056706 179.28576593 4.06926829 174.1178753 0.28329527 169.01874948 C-1.23232973 166.72968698 -1.23232973 166.72968698 -2.18545473 164.06562448 C-3.46702303 161.20600565 -4.43614792 160.95070399 -7.23232973 159.72968698 C-8.76748598 158.17109323 -8.76748598 158.17109323 -10.29482973 156.29218698 C-29.84584097 133.34460174 -57.33090148 114.07835779 -85.23232973 102.72968698 C-81.46945577 106.54179479 -77.60586746 110.22211821 -73.66982973 113.85468698 C-73.10586488 114.37933541 -72.54190004 114.90398385 -71.96084535 115.44453073 C-69.64331869 117.58587115 -67.38770081 119.61701136 -64.82998598 121.47187448 C-64.30275941 121.8869526 -63.77553285 122.30203073 -63.23232973 122.72968698 C-63.23232973 123.38968698 -63.23232973 124.04968698 -63.23232973 124.72968698 C-62.67545473 124.95656198 -62.11857973 125.18343698 -61.54482973 125.41718698 C-58.57073385 127.10518734 -56.51224108 129.19645214 -54.23232973 131.72968698 C-54.23232973 132.38968698 -54.23232973 133.04968698 -54.23232973 133.72968698 C-53.57232973 133.72968698 -52.91232973 133.72968698 -52.23232973 133.72968698 C-50.75186098 135.19843698 -50.75186098 135.19843698 -49.04482973 137.22968698 C-48.11863832 138.31830026 -48.11863832 138.31830026 -47.17373598 139.42890573 C-46.53307191 140.18816354 -45.89240785 140.94742135 -45.23232973 141.72968698 C-43.98567833 143.17009197 -42.73581814 144.60772783 -41.48232973 146.04218698 C-40.93061098 146.67769479 -40.37889223 147.3132026 -39.81045473 147.96796823 C-38.85305028 149.03675388 -37.8692346 150.08360273 -36.84170473 151.08515573 C-27.17266277 160.96541462 -19.06467698 172.7690066 -12.23232973 184.72968698 C-11.86220766 185.36890084 -11.49208559 186.00811471 -11.11074769 186.66669869 C-1.83457082 202.83286006 3.94201933 218.57513831 3.95517027 237.35468698 C3.96741637 238.28281198 3.97966246 239.21093698 3.99227965 240.16718698 C4.0021948 244.78103936 3.99639304 248.55413523 1.76767027 252.72968698 C-24.43702267 257.40909643 -53.02311398 243.86916414 -74.23232973 229.72968698 C-74.23232973 229.06968698 -74.23232973 228.40968698 -74.23232973 227.72968698 C-74.76342348 227.66910104 -75.29451723 227.6085151 -75.84170473 227.54609323 C-79.32398265 226.35688394 -81.75902423 224.05794235 -84.48232973 221.66718698 C-85.08786684 221.13987985 -85.69340394 220.61257272 -86.31729066 220.06928658 C-107.84451448 201.05869513 -125.02344243 179.84803155 -135.23232973 152.72968698 C-135.65900941 151.62367135 -136.0856891 150.51765573 -136.52529848 149.37812448 C-143.03181531 131.32003775 -146.35768998 112.15308129 -146.43545473 92.99531198 C-146.4411548 91.88146127 -146.44685487 90.76761056 -146.45272768 89.6200068 C-146.46213653 87.26676518 -146.4686952 84.91351063 -146.4725641 82.56025338 C-146.48218746 79.03184837 -146.51321709 75.5040474 -146.54482973 71.97578073 C-146.61095447 57.9474653 -145.71661235 44.53540733 -143.23232973 30.72968698 C-143.0122223 29.44610299 -142.79211488 28.16251901 -142.56533754 26.84003854 C-141.99398279 23.62718997 -141.37547737 20.42882785 -140.73232973 17.22968698 C-140.53252504 16.17394479 -140.33272035 15.1182026 -140.12686098 14.03046823 C-139.92447816 13.01339791 -139.72209535 11.9963276 -139.51357973 10.94843698 C-139.33891176 10.06091744 -139.16424379 9.17339791 -138.98428285 8.25898385 C-137.4445631 3.07992649 -137.4445631 3.07992649 -135.23232973 0.72968698 C-131.68376579 -0.09742754 -128.1436175 -0.01500176 -124.51357973 -0.01250052 C-123.342119 -0.03049201 -122.17065828 -0.0484835 -120.96369874 -0.06702018 C-117.60698578 -0.11060065 -114.25172151 -0.12983791 -110.89483202 -0.13771033 C-108.72520227 -0.14533808 -106.55584027 -0.16212479 -104.38629091 -0.18208671 C-69.59434953 -0.50010516 -34.79220152 -0.20996884 0 0 Z M-15.23232973 87.72968698 C-12.28580362 90.82628047 -8.89937111 92.97545366 -5.29482973 95.22968698 C1.36902887 99.42314316 1.36902887 99.42314316 4.08407652 101.51093698 C5.69127804 102.92514773 5.69127804 102.92514773 7.76767027 102.72968698 C8.15438902 103.6191401 8.15438902 103.6191401 8.54892027 104.52656198 C9.86536923 106.90629662 11.1934781 108.23947489 13.26767027 109.97968698 C13.87610777 110.50046823 14.48454527 111.02124948 15.11142027 111.55781198 C16.70162848 112.92221695 16.70162848 112.92221695 18.76767027 112.72968698 C19.11571715 113.54566354 19.11571715 113.54566354 19.47079527 114.37812448 C21.13509215 117.39591579 23.25501341 119.75605985 25.51767027 122.35468698 C29.90693427 127.52065201 33.55046357 132.74357286 36.76767027 138.72968698 C37.34259215 139.74160104 37.91751402 140.7535151 38.50985777 141.79609323 C43.67736855 151.36596833 46.4917532 161.13870097 48.76767027 171.72968698 C48.95385924 172.59029733 49.1400482 173.45090768 49.33187926 174.33759713 C54.17361465 198.53109626 50.39630573 225.09127677 41.68563902 248.00703073 C40.55467777 250.8825399 40.55467777 250.8825399 40.76767027 254.72968698 C64.99103219 255.55516864 64.99103219 255.55516864 88.76767027 251.72968698 C90.47309996 251.29462838 90.47309996 251.29462838 92.21298277 250.85078073 C99.66892556 248.78352977 106.14675206 245.71019893 112.76767027 241.72968698 C112.76767027 241.06968698 112.76767027 240.40968698 112.76767027 239.72968698 C113.47665465 239.50023385 114.18563902 239.27078073 114.91610777 239.03437448 C118.35918987 237.4590465 120.62095507 235.42787712 123.39267027 232.85468698 C124.80419371 231.55917916 124.80419371 231.55917916 126.24423277 230.23749948 C128.34666452 228.14808588 130.16444936 226.21521739 131.76767027 223.72968698 C131.76767027 223.06968698 131.76767027 222.40968698 131.76767027 221.72968698 C132.42767027 221.72968698 133.08767027 221.72968698 133.76767027 221.72968698 C135.21138634 219.06622757 136.64770104 216.39918778 138.08017027 213.72968698 C138.68635191 212.61400338 138.68635191 212.61400338 139.30477965 211.47578073 C150.70952426 190.14983552 151.31143434 165.74909587 144.76767027 142.72968698 C143.22623728 138.15401721 141.13290785 133.93455378 138.76767027 129.72968698 C138.2546234 128.80156198 137.74157652 127.87343698 137.21298277 126.91718698 C126.61856977 109.07396507 110.58795442 96.73695608 90.76767027 90.72968698 C78.0602437 87.66877477 65.65425592 87.32606632 52.63876402 87.43671823 C50.66766241 87.44233023 48.69655654 87.44659272 46.7254492 87.44958138 C41.59796153 87.46090402 36.47073865 87.4902591 31.34335387 87.52369332 C26.08704262 87.55466933 20.83068758 87.56814488 15.5743109 87.5832026 C5.30531589 87.61514394 -4.9634847 87.66618319 -15.23232973 87.72968698 Z " fill="#029407" transform="translate(239.23232972621918,41.270313024520874)"/>
<path d="M0 0 C0 0.33 0 0.66 0 1 C-68.31 1 -136.62 1 -207 1 C-199.90909038 10.6694222 -193.24429848 19.48128927 -185 28 C-184.11957031 28.92039062 -183.23914063 29.84078125 -182.33203125 30.7890625 C-178.69921531 34.51530941 -175.16932843 38.04225973 -170.875 41 C-169.92625 41.66 -168.9775 42.32 -168 43 C-168 43.66 -168 44.32 -168 45 C-167.27683594 45.26039062 -166.55367187 45.52078125 -165.80859375 45.7890625 C-162.90602381 47.04051825 -160.61958311 48.5248514 -158.0625 50.375 C-157.19625 50.99375 -156.33 51.6125 -155.4375 52.25 C-154.633125 52.8275 -153.82875 53.405 -153 54 C-150.05358127 56.06249311 -147.44713249 57.85095584 -144 59 C-144 59.66 -144 60.32 -144 61 C-142.74316406 61.38285156 -142.74316406 61.38285156 -141.4609375 61.7734375 C-137.68523916 63.11155181 -134.1809472 64.80123411 -130.625 66.625 C-129.20578563 67.34386149 -127.78651311 68.06260818 -126.3671875 68.78125 C-125.64499023 69.14863281 -124.92279297 69.51601562 -124.17871094 69.89453125 C-120.044877 71.99202117 -115.89674303 74.06129144 -111.74316406 76.11938477 C-108.64575602 77.65772314 -105.58218775 79.22588269 -102.5390625 80.87109375 C-101.49492187 81.42925781 -100.45078125 81.98742187 -99.375 82.5625 C-98.47523438 83.05878906 -97.57546875 83.55507812 -96.6484375 84.06640625 C-94.05105795 85.22322766 -94.05105795 85.22322766 -91.42662048 84.56169128 C-87.08851761 83.8505899 -82.91228419 83.89735229 -78.52563477 83.9465332 C-77.58990631 83.95292816 -76.65417786 83.95932312 -75.69009399 83.96591187 C-72.60712412 83.98863173 -69.52429796 84.01926833 -66.44140625 84.05078125 C-64.29198875 84.07002436 -62.14256956 84.08907981 -59.9931488 84.10795593 C-55.4917257 84.14889366 -50.99036852 84.19410833 -46.48901367 84.24194336 C-40.72797871 84.30253874 -34.9669226 84.34945891 -29.20573521 84.39277363 C-24.76780293 84.42817829 -20.32999054 84.47240938 -15.89216423 84.51912498 C-13.76837917 84.54012973 -11.64456116 84.55804401 -9.52072334 84.5727787 C-6.54822439 84.59441852 -3.57610266 84.62834005 -0.60375977 84.6652832 C0.70488289 84.67088005 0.70488289 84.67088005 2.03996277 84.67658997 C7.05847169 84.75402807 11.23872857 85.3923985 16 87 C16 87.66 16 88.32 16 89 C17.65 89.33 19.3 89.66 21 90 C17.18959775 91.27013408 14.42502731 90.39050746 10.61938477 89.58081055 C0.42588789 87.61185807 -9.56276098 87.61801394 -19.91015625 87.70703125 C-21.85883758 87.7126435 -23.80752321 87.71690587 -25.75621033 87.71989441 C-30.82451573 87.73121515 -35.89255311 87.76056845 -40.96075439 87.79400635 C-46.15674212 87.82498658 -51.35277418 87.83845878 -56.54882812 87.85351562 C-66.69933493 87.88545359 -76.84964497 87.93649037 -87 88 C-86.1968335 88.46325684 -85.39366699 88.92651367 -84.56616211 89.40380859 C-83.50147705 90.02078613 -82.43679199 90.63776367 -81.33984375 91.2734375 C-80.28917725 91.88106934 -79.23851074 92.48870117 -78.15600586 93.11474609 C-71.46200866 97.1134346 -65.37631588 101.3249999 -60 107 C-58.63875 108.051875 -58.63875 108.051875 -57.25 109.125 C-52.44762012 113.06541426 -48.79921041 118.12639619 -45 123 C-44.31550781 123.85722656 -43.63101563 124.71445313 -42.92578125 125.59765625 C-34.35153927 136.76606967 -28.41777997 149.359396 -25 163 C-24.81953125 163.65709961 -24.6390625 164.31419922 -24.453125 164.99121094 C-17.84111142 189.30599736 -19.14782029 217.33903367 -28 241 C-28.99 241 -29.98 241 -31 241 C-31.12117187 241.56589844 -31.24234375 242.13179687 -31.3671875 242.71484375 C-31.53476562 243.44832031 -31.70234375 244.18179688 -31.875 244.9375 C-32.11863281 246.03384766 -32.11863281 246.03384766 -32.3671875 247.15234375 C-33 249 -33 249 -35 250 C-34.74605469 250.95003906 -34.49210938 251.90007812 -34.23046875 252.87890625 C-33.48519154 258.21091643 -35.95487214 262.28945921 -38.3125 266.9375 C-38.7667334 267.85901855 -39.2209668 268.78053711 -39.68896484 269.72998047 C-43.92824092 278.17199973 -48.70757203 286.18148741 -54 294 C-54.66644531 294.99257813 -55.33289063 295.98515625 -56.01953125 297.0078125 C-66.15995975 311.50594042 -78.54391626 322.23248413 -92.8828125 332.46875 C-94.88305358 333.83019769 -94.88305358 333.83019769 -96 335 C-57.72 335 -19.44 335 20 335 C20 335.33 20 335.66 20 336 C12.09788766 336.76593502 4.29362716 337.14194411 -3.64355469 337.11352539 C-4.73770691 337.11367142 -5.83185913 337.11381744 -6.95916748 337.1139679 C-10.53009106 337.11327829 -14.10096068 337.10553102 -17.671875 337.09765625 C-20.16579154 337.09578868 -22.65970845 337.09436638 -25.15362549 337.09336853 C-31.6834008 337.08957003 -38.21315348 337.07976279 -44.74291992 337.06866455 C-51.41975464 337.05784388 -58.09659645 337.05385861 -64.7734375 337.04882812 C-77.84896792 337.03813789 -90.92448275 337.02128903 -104 337 C-103.25248103 332.32606987 -102.00476985 330.60934008 -98.5 327.375 C-91.21187497 320.37839997 -84.9984061 312.61881665 -79.19140625 304.36328125 C-78.60166016 303.68845703 -78.60166016 303.68845703 -78 303 C-77.34 303 -76.68 303 -76 303 C-75.92007813 302.47921875 -75.84015625 301.9584375 -75.7578125 301.421875 C-74.69451141 298.02369626 -72.76884387 295.2332986 -70.875 292.25 C-66.07619542 284.47292474 -62.42724587 276.4562594 -59 268 C-58.39865234 266.62134766 -58.39865234 266.62134766 -57.78515625 265.21484375 C-48.69002535 243.00899585 -49.52868905 214.47646296 -58.375 192.375 C-59.21707287 190.56762408 -60.09143084 188.7748793 -61 187 C-61.4640625 186.071875 -61.928125 185.14375 -62.40625 184.1875 C-65.34710321 178.55607895 -68.69840198 173.38818832 -72.484375 168.2890625 C-74 166 -74 166 -74.953125 163.3359375 C-76.2346933 160.47631867 -77.20381819 160.22101701 -80 159 C-81.53515625 157.44140625 -81.53515625 157.44140625 -83.0625 155.5625 C-102.61351124 132.61491477 -130.09857175 113.34867081 -158 102 C-154.23712605 105.81210782 -150.37353773 109.49243123 -146.4375 113.125 C-145.87353516 113.64964844 -145.30957031 114.17429687 -144.72851562 114.71484375 C-142.41098897 116.85618417 -140.15537108 118.88732439 -137.59765625 120.7421875 C-137.07042969 121.15726562 -136.54320312 121.57234375 -136 122 C-136 122.66 -136 123.32 -136 124 C-135.443125 124.226875 -134.88625 124.45375 -134.3125 124.6875 C-131.33840412 126.37550036 -129.27991135 128.46676517 -127 131 C-127 131.66 -127 132.32 -127 133 C-126.34 133 -125.68 133 -125 133 C-123.51953125 134.46875 -123.51953125 134.46875 -121.8125 136.5 C-120.88630859 137.58861328 -120.88630859 137.58861328 -119.94140625 138.69921875 C-119.30074219 139.45847656 -118.66007812 140.21773437 -118 141 C-116.7533486 142.44040499 -115.50348842 143.87804086 -114.25 145.3125 C-113.69828125 145.94800781 -113.1465625 146.58351562 -112.578125 147.23828125 C-111.62072055 148.30706691 -110.63690488 149.35391575 -109.609375 150.35546875 C-99.94033305 160.23572764 -91.83234725 172.03931962 -85 184 C-84.62987793 184.63921387 -84.25975586 185.27842773 -83.87841797 185.93701172 C-74.6022411 202.10317309 -68.82565094 217.84545134 -68.8125 236.625 C-68.80025391 237.553125 -68.78800781 238.48125 -68.77539062 239.4375 C-68.76547547 244.05135239 -68.77127723 247.82444826 -71 252 C-97.20469294 256.67940945 -125.79078425 243.13947716 -147 229 C-147 228.34 -147 227.68 -147 227 C-147.53109375 226.93941406 -148.0621875 226.87882813 -148.609375 226.81640625 C-152.09165292 225.62719696 -154.5266945 223.32825538 -157.25 220.9375 C-157.85553711 220.41019287 -158.46107422 219.88288574 -159.08496094 219.33959961 C-180.61218475 200.32900815 -197.79111271 179.11834457 -208 152 C-208.42667969 150.89398438 -208.85335937 149.78796875 -209.29296875 148.6484375 C-215.79948558 130.59035078 -219.12536025 111.42339432 -219.203125 92.265625 C-219.20882507 91.15177429 -219.21452515 90.03792358 -219.22039795 88.89031982 C-219.22980681 86.5370782 -219.23636548 84.18382365 -219.24023438 81.83056641 C-219.24985774 78.30216139 -219.28088736 74.77436042 -219.3125 71.24609375 C-219.37862475 57.21777832 -218.48428263 43.80572036 -216 30 C-215.77989258 28.71641602 -215.55978516 27.43283203 -215.33300781 26.11035156 C-214.76165306 22.89750299 -214.14314765 19.69914087 -213.5 16.5 C-213.30019531 15.44425781 -213.10039062 14.38851562 -212.89453125 13.30078125 C-212.69214844 12.28371094 -212.48976563 11.26664063 -212.28125 10.21875 C-212.10658203 9.33123047 -211.93191406 8.44371094 -211.75195312 7.52929688 C-210.21116123 2.34663324 -210.21116123 2.34663324 -208 0 C-204.43963998 -0.82706095 -200.88765147 -0.74472301 -197.24609375 -0.7421875 C-196.07076584 -0.76008835 -194.89543793 -0.7779892 -193.68449402 -0.7964325 C-190.32176164 -0.83979026 -186.96044775 -0.85888149 -183.59754181 -0.86699295 C-181.43548193 -0.87500748 -179.27372476 -0.89267467 -177.11175537 -0.91378784 C-118.08583056 -1.48818516 -59.02408349 -0.55452004 0 0 Z " fill="#03BD08" transform="translate(312,42)"/>
<path d="M0 0 C1 2 1 2 0.44604492 3.71728516 C0.12740479 4.40097168 -0.19123535 5.0846582 -0.51953125 5.7890625 C-0.87732666 6.55798828 -1.23512207 7.32691406 -1.60375977 8.11914062 C-2.00264404 8.94607422 -2.40152832 9.77300781 -2.8125 10.625 C-3.21976318 11.47513672 -3.62702637 12.32527344 -4.04663086 13.20117188 C-8.11797536 21.52225851 -12.82861834 29.32298655 -18 37 C-18.66773438 37.99515625 -19.33546875 38.9903125 -20.0234375 40.015625 C-30.1682674 54.50823915 -42.54479597 65.23311213 -56.8828125 75.46875 C-58.88305358 76.83019769 -58.88305358 76.83019769 -60 78 C-21.72 78 16.56 78 56 78 C56 78.33 56 78.66 56 79 C48.09788766 79.76593502 40.29362716 80.14194411 32.35644531 80.11352539 C31.26229309 80.11367142 30.16814087 80.11381744 29.04083252 80.1139679 C25.46990894 80.11327829 21.89903932 80.10553102 18.328125 80.09765625 C15.83420846 80.09578868 13.34029155 80.09436638 10.84637451 80.09336853 C4.3165992 80.08957003 -2.21315348 80.07976279 -8.74291992 80.06866455 C-15.41975464 80.05784388 -22.09659645 80.05385861 -28.7734375 80.04882812 C-41.84896792 80.03813789 -54.92448275 80.02128903 -68 80 C-67.25248103 75.32606987 -66.00476985 73.60934008 -62.5 70.375 C-57.9020083 65.9812171 -53.91594896 61.35901205 -50.0078125 56.34765625 C-48.12183294 54.14245447 -46.46860266 52.51414293 -44 51 C-43.01 51 -42.02 51 -41 51 C-40.7525 49.906875 -40.505 48.81375 -40.25 47.6875 C-38.97997149 43.94091591 -38.34243648 42.89404734 -35 41 C-34.01 41.495 -34.01 41.495 -33 42 C-33.845625 42.9075 -34.69125 43.815 -35.5625 44.75 C-37.73261875 47.18952952 -37.73261875 47.18952952 -37.8125 50.375 C-37.544375 50.91125 -37.27625 51.4475 -37 52 C-36.236875 51.690625 -35.47375 51.38125 -34.6875 51.0625 C-32.81210323 50.32106407 -30.91315348 49.63771783 -29 49 C-27.93283296 47.20067421 -27.93283296 47.20067421 -27 45 C-25.5 42.25 -25.5 42.25 -24 40 C-23.34 40 -22.68 40 -22 40 C-22 39.01 -22 38.02 -22 37 C-21.34 36.67 -20.68 36.34 -20 36 C-19.09656316 34.11736119 -19.09656316 34.11736119 -18.375 31.9375 C-18.11460937 31.20402344 -17.85421875 30.47054688 -17.5859375 29.71484375 C-17.39257812 29.14894531 -17.19921875 28.58304687 -17 28 C-16.34 28 -15.68 28 -15 28 C-14.71125 27.278125 -14.4225 26.55625 -14.125 25.8125 C-13.75375 24.884375 -13.3825 23.95625 -13 23 C-12.690625 22.175 -12.38125 21.35 -12.0625 20.5 C-10.92315144 17.81917986 -9.54304556 15.4688729 -8 13 C-7.54625 12.236875 -7.0925 11.47375 -6.625 10.6875 C-4.45597535 7.10026692 -2.22884003 3.55028668 0 0 Z M-30 32 C-29.67 32.66 -29.34 33.32 -29 34 C-29.93578995 36.35981813 -30.93347808 38.69631264 -32 41 C-32.6875 39.3125 -32.6875 39.3125 -33 37 C-31.5625 34.25 -31.5625 34.25 -30 32 Z " fill="#06B109" transform="translate(276,299)"/>
<path d="M0 0 C0 0.66 0 1.32 0 2 C-1.28515503 2.00586624 -2.57031006 2.01173248 -3.89440918 2.01777649 C-16.01814349 2.07504128 -28.14169908 2.14782287 -40.26525116 2.23571491 C-46.49778444 2.28040238 -52.7302526 2.31966234 -58.96289062 2.34643555 C-64.9800803 2.37248433 -70.99701914 2.41289854 -77.01405334 2.46318626 C-79.30726497 2.4798442 -81.60051996 2.49136514 -83.89378357 2.49761391 C-87.11109584 2.50726637 -90.32776793 2.53534056 -93.54492188 2.56762695 C-94.96049377 2.56547432 -94.96049377 2.56547432 -96.40466309 2.5632782 C-102.26419874 2.64619239 -106.62748618 3.63530514 -112 6 C-112.99 4.515 -112.99 4.515 -114 3 C-116.96892769 2.70326694 -119.72942999 2.6011579 -122.70068359 2.62768555 C-123.60163254 2.62403488 -124.50258148 2.62038422 -125.43083191 2.61662292 C-128.42022334 2.60849246 -131.40907685 2.62215036 -134.3984375 2.63671875 C-136.4710795 2.63723715 -138.54372201 2.63672024 -140.61636353 2.63520813 C-144.96599645 2.63529797 -149.31544449 2.64574998 -153.66503906 2.66381836 C-159.24277726 2.68647764 -164.82024445 2.68705597 -170.39801598 2.68030071 C-174.68051566 2.67695966 -178.96295349 2.68359389 -183.24544144 2.69342995 C-185.30195416 2.697282 -187.35847376 2.69843014 -189.41498947 2.6968441 C-192.29030209 2.69647347 -195.16526693 2.70909413 -198.04052734 2.7253418 C-199.31867058 2.72162567 -199.31867058 2.72162567 -200.62263489 2.71783447 C-201.40775955 2.72491928 -202.19288422 2.73200409 -203.00180054 2.73930359 C-203.68132971 2.74135646 -204.36085888 2.74340933 -205.06097984 2.74552441 C-207.35819064 3.04700868 -208.99204198 3.87136326 -211 5 C-211 4.34 -211 3.68 -211 3 C-212.32 2.67 -213.64 2.34 -215 2 C-215 1.34 -215 0.68 -215 0 C-188.14875018 -0.15398152 -161.29747326 -0.3020125 -134.44615173 -0.4429636 C-121.97856946 -0.50854856 -109.51100339 -0.57607917 -97.04345703 -0.64819336 C-86.17650003 -0.71104455 -75.30953031 -0.77024189 -64.44252968 -0.82505554 C-58.68879947 -0.85420512 -52.9350922 -0.88518169 -47.18139648 -0.92053413 C-41.76426757 -0.95376088 -36.34713495 -0.98209666 -30.92996025 -1.00670624 C-28.94341494 -1.01658848 -26.95687753 -1.02824677 -24.97035408 -1.04183006 C-22.25375391 -1.06013735 -19.53719733 -1.07199601 -16.82055664 -1.08229065 C-16.03843307 -1.08909444 -15.25630951 -1.09589823 -14.45048523 -1.10290819 C-9.54682697 -1.1128377 -4.85533826 -0.69669346 0 0 Z " fill="#167116" transform="translate(320,43)"/>
<path d="M0 0 C0 0.33 0 0.66 0 1 C-68.31 1 -136.62 1 -207 1 C-206.01 2.32 -205.02 3.64 -204 5 C-204.33 5.99 -204.66 6.98 -205 8 C-205.66 7.34 -206.32 6.68 -207 6 C-208.54127878 8.8016777 -209.34152969 11.17423788 -209.78125 14.3359375 C-209.90113281 15.15320313 -210.02101563 15.97046875 -210.14453125 16.8125 C-210.32048828 18.0809375 -210.32048828 18.0809375 -210.5 19.375 C-211.26189748 24.81712487 -212.17186414 29.79571 -214 35 C-214.55108876 37.86259997 -214.99663895 40.72803311 -215.4375 43.609375 C-216 46 -216 46 -218 48 C-217.49178936 39.07328921 -216.3589668 30.45538568 -214.625 21.6875 C-214.31175781 20.0159082 -214.31175781 20.0159082 -213.9921875 18.31054688 C-211.02347194 3.02347194 -211.02347194 3.02347194 -208 0 C-206.55407942 -0.1289818 -205.10192963 -0.1885442 -203.65063477 -0.22119141 C-202.6894725 -0.244319 -201.72831024 -0.26744659 -200.73802185 -0.29127502 C-199.10619713 -0.32111732 -199.10619713 -0.32111732 -197.44140625 -0.3515625 C-195.67416954 -0.38690346 -195.67416954 -0.38690346 -193.87123108 -0.42295837 C-190.49249282 -0.48562205 -187.11380077 -0.54158746 -183.73487091 -0.59233475 C-182.29165936 -0.61403586 -180.8484573 -0.63637784 -179.40526581 -0.65937424 C-119.61918216 -1.6090709 -59.78699497 -0.56168744 0 0 Z " fill="#78AE77" transform="translate(312,42)"/>
<path d="M0 0 C2.01822917 0.29296875 4.03645833 0.5859375 6.0546875 0.87890625 C8.08140667 1.1684297 8.08140667 1.1684297 10 0 C13.01514704 -0.07448515 16.00576655 -0.086717 19.02026367 -0.0534668 C19.95540802 -0.04707184 20.89055237 -0.04067688 21.85403442 -0.03408813 C24.95874975 -0.01122863 28.06332894 0.01936566 31.16796875 0.05078125 C33.32310335 0.07000874 35.4782395 0.0890647 37.63337708 0.10795593 C42.15870382 0.14900032 46.68396745 0.19422567 51.20922852 0.24194336 C57.00176739 0.30239642 62.79432764 0.34937967 68.58701611 0.39277363 C73.04211276 0.42819099 77.49709031 0.47242435 81.95208168 0.51912498 C84.08703113 0.54014081 86.22201352 0.55805185 88.35701561 0.5727787 C91.349108 0.59442355 94.34082615 0.62834964 97.33276367 0.6652832 C98.21147629 0.66901443 99.0901889 0.67274567 99.99552917 0.67658997 C105.02998129 0.75372838 109.22420634 1.38528604 114 3 C114 3.66 114 4.32 114 5 C115.65 5.33 117.3 5.66 119 6 C115.18959775 7.27013408 112.42502731 6.39050746 108.61938477 5.58081055 C98.42588789 3.61185807 88.43723902 3.61801394 78.08984375 3.70703125 C76.14116242 3.7126435 74.19247679 3.71690587 72.24378967 3.71989441 C67.17548427 3.73121515 62.10744689 3.76056845 57.03924561 3.79400635 C51.84325788 3.82498658 46.64722582 3.83845878 41.45117188 3.85351562 C31.30066507 3.88545359 21.15035503 3.93649037 11 4 C11.82854492 4.47123291 12.65708984 4.94246582 13.51074219 5.42797852 C14.59516602 6.05115967 15.67958984 6.67434082 16.796875 7.31640625 C18.41094238 8.23981812 18.41094238 8.23981812 20.05761719 9.18188477 C23.28923701 11.17872121 25.55991932 13.12419063 28 16 C27.34 16.33 26.68 16.66 26 17 C26 16.34 26 15.68 26 15 C24.6078125 15.12375 24.6078125 15.12375 23.1875 15.25 C20 15 20 15 18.125 13.125 C17 11 17 11 17 9 C16.32453125 8.90203125 15.6490625 8.8040625 14.953125 8.703125 C6.44976283 7.27770591 6.44976283 7.27770591 3 3 C2.01 2.67 1.02 2.34 0 2 C0 1.34 0 0.68 0 0 Z " fill="#4C9F4A" transform="translate(214,126)"/>
<path d="M0 0 C1.35015859 4.05047576 0.62084998 6.7920168 0 11 C0.66 11.33 1.32 11.66 2 12 C1.01 12.33 0.02 12.66 -1 13 C-1 12.34 -1 11.68 -1 11 C-2.65 11.33 -4.3 11.66 -6 12 C-6 12.66 -6 13.32 -6 14 C-4.68 13.67 -3.36 13.34 -2 13 C-2.33 13.99 -2.66 14.98 -3 16 C-5.0625 16.6875 -5.0625 16.6875 -7 17 C-7 17.66 -7 18.32 -7 19 C-8.65 19.33 -10.3 19.66 -12 20 C-12.144375 20.804375 -12.28875 21.60875 -12.4375 22.4375 C-13 25 -13 25 -14 26 C24.28 26 62.56 26 102 26 C102 26.33 102 26.66 102 27 C94.09788766 27.76593502 86.29362716 28.14194411 78.35644531 28.11352539 C77.26229309 28.11367142 76.16814087 28.11381744 75.04083252 28.1139679 C71.46990894 28.11327829 67.89903932 28.10553102 64.328125 28.09765625 C61.83420846 28.09578868 59.34029155 28.09436638 56.84637451 28.09336853 C50.3165992 28.08957003 43.78684652 28.07976279 37.25708008 28.06866455 C30.58024536 28.05784388 23.90340355 28.05385861 17.2265625 28.04882812 C4.15103208 28.03813789 -8.92448275 28.02128903 -22 28 C-21.25248103 23.32606987 -20.00476985 21.60934008 -16.5 18.375 C-11.86432138 13.93913512 -7.80387529 9.26772893 -3.8125 4.25 C-2 2 -2 2 0 0 Z " fill="#3EA13C" transform="translate(230,351)"/>
<path d="M0 0 C0.99 0 1.98 0 3 0 C3.67815954 2.66419818 4.34265777 5.33065758 5 8 C5.19078125 8.74378906 5.3815625 9.48757813 5.578125 10.25390625 C7.21278532 16.96768972 7.70002675 23.199893 6 30 C9.465 29.505 9.465 29.505 13 29 C11.96236381 31.50762079 11.37473835 32.7774991 9 34.1875 C6.17492417 36.74772497 6.02979341 39.36997825 5.39453125 43.0390625 C5 45 5 45 4 46 C3.87625 47.175625 3.7525 48.35125 3.625 49.5625 C3.1048364 54.05991451 1.76223841 57.85172198 0 62 C-0.46792969 63.15242188 -0.46792969 63.15242188 -0.9453125 64.328125 C-2.79446572 68.72532399 -4.63536566 72.52321118 -8 76 C-8.66 76 -9.32 76 -10 76 C-9.74089844 75.35289062 -9.48179687 74.70578125 -9.21484375 74.0390625 C-8.81394531 73.03617187 -8.41304687 72.03328125 -8 71 C-7.74492676 70.37706055 -7.48985352 69.75412109 -7.22705078 69.11230469 C2.04113353 46.28599928 4.00517996 24.24564294 0 0 Z " fill="#12A816" transform="translate(258,247)"/>
<path d="M0 0 C6.11065757 6.11065757 5.28848285 18.91574146 5.3125 27.0625 C5.32047607 28.41855347 5.32047607 28.41855347 5.32861328 29.80200195 C5.28070511 34.29150153 5.12467371 37.92841412 3 42 C-8.33823255 44.02468438 -19.68653519 41.72982444 -30.75 39.0625 C-31.41717041 38.90499268 -32.08434082 38.74748535 -32.77172852 38.58520508 C-36.72073118 37.57195077 -38.61684316 36.53736763 -42 34 C-37.71 34.33 -33.42 34.66 -29 35 C-29 35.66 -29 36.32 -29 37 C-25.7 37 -22.4 37 -19 37 C-19 37.66 -19 38.32 -19 39 C-16.22763506 38.91308261 -13.45852922 38.80622639 -10.6875 38.6875 C-9.90181641 38.66494141 -9.11613281 38.64238281 -8.30664062 38.61914062 C-7.54931641 38.58369141 -6.79199219 38.54824219 -6.01171875 38.51171875 C-5.31522217 38.48553467 -4.61872559 38.45935059 -3.90112305 38.43237305 C-1.44528003 37.87383985 -0.55022426 36.95646207 1 35 C2.21518865 31.35443406 2.18405888 27.98305836 2.1875 24.1875 C2.20586914 23.13852539 2.20586914 23.13852539 2.22460938 22.06835938 C2.23712029 17.61030238 1.47137004 14.17176681 0 10 C-0.1953125 7.2265625 -0.1953125 7.2265625 -0.125 4.625 C-0.10695312 3.75101563 -0.08890625 2.87703125 -0.0703125 1.9765625 C-0.04710937 1.32429687 -0.02390625 0.67203125 0 0 Z " fill="#45B340" transform="translate(238,252)"/>
<path d="M0 0 C59.73 0 119.46 0 181 0 C181 0.33 181 0.66 181 1 C179.69240723 1.00879936 179.69240723 1.00879936 178.35839844 1.01777649 C170.11967146 1.07582072 161.8812122 1.14796434 153.64274597 1.23571491 C149.40784632 1.28033108 145.17304093 1.31960614 140.93798828 1.34643555 C136.84644196 1.37255635 132.75526008 1.41301982 128.66394043 1.46318626 C127.10759027 1.47979591 125.55117715 1.4913468 123.99475098 1.49761391 C112.66136903 1.50723328 112.66136903 1.50723328 102 5 C101.01 3.515 101.01 3.515 100 2 C97.03107231 1.70326694 94.27057001 1.6011579 91.29931641 1.62768555 C90.39836746 1.62403488 89.49741852 1.62038422 88.56916809 1.61662292 C85.57977666 1.60849246 82.59092315 1.62215036 79.6015625 1.63671875 C77.5289205 1.63723715 75.45627799 1.63672024 73.38363647 1.63520813 C69.03400355 1.63529797 64.68455551 1.64574998 60.33496094 1.66381836 C54.75722274 1.68647764 49.17975555 1.68705597 43.60198402 1.68030071 C39.31948434 1.67695966 35.03704651 1.68359389 30.75455856 1.69342995 C28.69804584 1.697282 26.64152624 1.69843014 24.58501053 1.6968441 C21.70969791 1.69647347 18.83473307 1.70909413 15.95947266 1.7253418 C14.68132942 1.72162567 14.68132942 1.72162567 13.37736511 1.71783447 C12.59224045 1.72491928 11.80711578 1.73200409 10.99819946 1.73930359 C10.31867029 1.74135646 9.63914112 1.74340933 8.93902016 1.74552441 C6.64180936 2.04700868 5.00795802 2.87136326 3 4 C3 3.34 3 2.68 3 2 C2.01 2 1.02 2 0 2 C0 1.34 0 0.68 0 0 Z " fill="#0C8510" transform="translate(106,44)"/>
<path d="M0 0 C3.22508165 3.13580603 6.11984792 6.32317744 8.875 9.875 C12.87195985 14.81084304 17.14794874 19.37145078 21.625 23.875 C22.24616699 24.50519043 22.86733398 25.13538086 23.50732422 25.78466797 C26.50497686 28.76327278 29.47414685 31.42391088 32.9609375 33.8203125 C33.96382812 34.53960937 34.96671875 35.25890625 36 36 C36 36.66 36 37.32 36 38 C36.72316406 38.26039062 37.44632813 38.52078125 38.19140625 38.7890625 C41.09397619 40.04051825 43.38041689 41.5248514 45.9375 43.375 C46.80375 43.99375 47.67 44.6125 48.5625 45.25 C49.7690625 46.11625 49.7690625 46.11625 51 47 C53.94641873 49.06249311 56.55286751 50.85095584 60 52 C60 52.66 60 53.32 60 54 C60.886875 54.2475 61.77375 54.495 62.6875 54.75 C66.10427135 56.03934768 68.2797748 57.59980129 71 60 C65.25 59.125 65.25 59.125 63 58 C63 57.34 63 56.68 63 56 C62.12730469 55.73316406 61.25460938 55.46632812 60.35546875 55.19140625 C51.20731046 51.94322432 43.60515455 46.16821604 36.375 39.8203125 C34.12574669 38.09637822 32.76490373 37.39681489 30 37 C30 36.34 30 35.68 30 35 C29.34 35 28.68 35 28 35 C27.67 34.01 27.34 33.02 27 32 C25.34051852 30.98812105 23.67419438 29.9873454 22 29 C22 28.34 22 27.68 22 27 C21.01 26.67 20.02 26.34 19 26 C17.63823419 24.01924973 16.30406884 22.01920337 15 20 C14.34 19.67 13.68 19.34 13 19 C13 18.34 13 17.68 13 17 C12.1646875 16.690625 12.1646875 16.690625 11.3125 16.375 C5.90998497 13.16269377 2.8229914 7.43687232 0 2 C0 1.34 0 0.68 0 0 Z " fill="#16BA1A" transform="translate(108,49)"/>
<path d="M0 0 C1.33134293 3.99402879 0.0261434 6.43953701 -1.4375 10.1875 C-1.71190918 10.89729004 -1.98631836 11.60708008 -2.26904297 12.33837891 C-8.0002078 26.82131692 -15.40676089 40.67106268 -25 53 C-25.33 53 -25.66 53 -26 53 C-26 51.35 -26 49.7 -26 48 C-24.515 47.505 -24.515 47.505 -23 47 C-23 46.34 -23 45.68 -23 45 C-22.34 45 -21.68 45 -21 45 C-20.855625 44.2575 -20.71125 43.515 -20.5625 42.75 C-20.376875 41.8425 -20.19125 40.935 -20 40 C-19.855625 39.2575 -19.71125 38.515 -19.5625 37.75 C-19.376875 37.1725 -19.19125 36.595 -19 36 C-18.01 35.505 -18.01 35.505 -17 35 C-16.34786708 32.97536745 -16.34786708 32.97536745 -16 31 C-15.01 31 -14.02 31 -13 31 C-13.061875 29.8553125 -13.061875 29.8553125 -13.125 28.6875 C-13 26 -13 26 -11 23 C-11.66 22.34 -12.32 21.68 -13 21 C-12.21625 20.29875 -11.4325 19.5975 -10.625 18.875 C-7.84360328 15.82870835 -7.04270398 13.93019194 -6 10 C-4.46575342 4.30136986 -4.46575342 4.30136986 -1.875 2.625 C-1.25625 2.41875 -0.6375 2.2125 0 2 C0 1.34 0 0.68 0 0 Z " fill="#56A550" transform="translate(469,263)"/>
<path d="M0 0 C1.32 0 2.64 0 4 0 C4 0.66 4 1.32 4 2 C9.68839118 2.9802248 15.17294333 3.11948801 20.9375 3.0625 C21.81212891 3.05798828 22.68675781 3.05347656 23.58789062 3.04882812 C25.72529047 3.03714834 27.86265463 3.01921689 30 3 C29.67 3.66 29.34 4.32 29 5 C14.15752683 5.84815335 -0.62357747 6.13613794 -15.48828125 6.09765625 C-17.65545112 6.09578471 -19.82262142 6.0943643 -21.98979187 6.09336853 C-27.61688463 6.08960121 -33.24395041 6.07982242 -38.87103271 6.06866455 C-44.64383581 6.05832398 -50.41664338 6.05384418 -56.18945312 6.04882812 C-67.45964708 6.03819324 -78.72982128 6.02118897 -90 6 C-90 5.67 -90 5.34 -90 5 C-79.60647418 3.9859782 -69.31850804 3.86836461 -58.88671875 3.90234375 C-57.17894024 3.9042136 -55.4711612 3.90563482 -53.76338196 3.90663147 C-49.31326767 3.91041208 -44.86318709 3.92020318 -40.41308594 3.93133545 C-35.8541713 3.9416465 -31.29525111 3.94614966 -26.73632812 3.95117188 C-17.82420411 3.96183038 -8.91210488 3.97885184 0 4 C0 2.68 0 1.36 0 0 Z " fill="#096D0B" transform="translate(304,372)"/>
<path d="M0 0 C1 2 1 2 0.44604492 3.71728516 C0.12740479 4.40097168 -0.19123535 5.0846582 -0.51953125 5.7890625 C-0.87732666 6.55798828 -1.23512207 7.32691406 -1.60375977 8.11914062 C-2.00264404 8.94607422 -2.40152832 9.77300781 -2.8125 10.625 C-3.21976318 11.47513672 -3.62702637 12.32527344 -4.04663086 13.20117188 C-11.62622458 28.69248096 -21.43777643 45.05704097 -34 57 C-34.66 57 -35.32 57 -36 57 C-35.65930765 53.84859577 -35.41923159 52.39218439 -33.0625 50.1875 C-31 49 -31 49 -29 49 C-28.731875 48.443125 -28.46375 47.88625 -28.1875 47.3125 C-26.89100504 44.78774666 -25.57523677 42.36285516 -24 40 C-23.34 40 -22.68 40 -22 40 C-22 39.01 -22 38.02 -22 37 C-21.01 36.505 -21.01 36.505 -20 36 C-19.09656316 34.11736119 -19.09656316 34.11736119 -18.375 31.9375 C-18.11460937 31.20402344 -17.85421875 30.47054688 -17.5859375 29.71484375 C-17.39257812 29.14894531 -17.19921875 28.58304687 -17 28 C-16.34 28 -15.68 28 -15 28 C-14.71125 27.278125 -14.4225 26.55625 -14.125 25.8125 C-13.75375 24.884375 -13.3825 23.95625 -13 23 C-12.690625 22.175 -12.38125 21.35 -12.0625 20.5 C-10.92315144 17.81917986 -9.54304556 15.4688729 -8 13 C-7.54625 12.236875 -7.0925 11.47375 -6.625 10.6875 C-4.45597535 7.10026692 -2.22884003 3.55028668 0 0 Z " fill="#10AA14" transform="translate(276,299)"/>
<path d="M0 0 C3.53033867 3.77735945 4.35200082 8.18613579 5.5625 13.0625 C5.77068359 13.85849609 5.97886719 14.65449219 6.19335938 15.47460938 C8.93711469 26.20019834 10.30868941 36.22047953 10.1875 47.3125 C10.18685547 48.45267578 10.18621094 49.59285156 10.18554688 50.76757812 C10.15816671 55.97893689 9.95515272 60.86408905 9 66 C8.67 66 8.34 66 8 66 C8 55.44 8 44.88 8 34 C7.34 34 6.68 34 6 34 C4.0953405 27.1360384 2.74159552 20.58421443 2.25 13.4765625 C2.02087084 11.20675174 1.60384984 9.23739185 0.9375 7.0625 C0 4 0 4 0 0 Z " fill="#5BB859" transform="translate(281,190)"/>
<path d="M0 0 C5.66153846 1.47692308 5.66153846 1.47692308 7.375 4.125 C7.684375 5.053125 7.684375 5.053125 8 6 C8.99 6 9.98 6 11 6 C11.33 4.68 11.66 3.36 12 2 C14.62591359 4.62591359 14.517326 6.34546831 15 10 C15.185625 11.27875 15.37125 12.5575 15.5625 13.875 C15.706875 14.90625 15.85125 15.9375 16 17 C16.5775 17.04125 17.155 17.0825 17.75 17.125 C21.32751319 18.51625513 22.25999588 20.63999204 24 24 C24.59035539 26.99568767 24.86453154 29.95195974 25 33 C22.46298589 30.61264121 20.92351844 28.16877589 19.25 25.109375 C17.1882681 21.63020241 14.77133095 18.40268721 12.390625 15.13671875 C11 13 11 13 11 11 C10.41734375 10.75378906 9.8346875 10.50757813 9.234375 10.25390625 C6.65287455 8.80519708 5.16155251 7.18806717 3.25 4.9375 C2.63640625 4.22464844 2.0228125 3.51179687 1.390625 2.77734375 C0 1 0 1 0 0 Z " fill="#05AF0A" transform="translate(225,192)"/>
<path d="M0 0 C6.37182127 6.82695136 8.72861541 16.75423737 11.6875 25.4375 C11.99494141 26.30181641 12.30238281 27.16613281 12.61914062 28.05664062 C14.76282555 34.36573521 15.66578759 40.3516457 16 47 C15.01 47 14.02 47 13 47 C12.96261719 46.28714844 12.92523438 45.57429688 12.88671875 44.83984375 C12.49356967 38.36098311 12.49356967 38.36098311 10.5 32.25 C8.89986388 28.7830384 8.52550849 25.75363209 8 22 C7.34 21.67 6.68 21.34 6 21 C5.59270772 18.67843403 5.25561323 16.3431213 5 14 C4.34 14 3.68 14 3 14 C2.29866401 12.42274653 1.614417 10.83788667 0.9375 9.25 C0.55464844 8.36828125 0.17179687 7.4865625 -0.22265625 6.578125 C-1.04600008 3.84743691 -0.9773992 2.63098653 0 0 Z " fill="#53AC52" transform="translate(458,129)"/>
<path d="M0 0 C0.66 0 1.32 0 2 0 C1.68817931 1.41681634 1.37551263 2.83344651 1.0625 4.25 C0.88847656 5.03890625 0.71445312 5.8278125 0.53515625 6.640625 C0.0524228 8.76888049 -0.46707028 10.88389811 -1 13 C23.18649595 12.78531668 23.18649595 12.78531668 47 9 C48.99733285 8.6510407 50.99669047 8.31282912 53 8 C52.1875 10.4375 52.1875 10.4375 50 13 C43.04204399 14.43880471 35.6011509 14.13901213 28.51953125 14.09765625 C27.58066574 14.0962413 26.64180023 14.09482635 25.67448425 14.09336853 C22.72045496 14.08783898 19.76650579 14.07530045 16.8125 14.0625 C14.79101673 14.05747587 12.76953226 14.05291458 10.74804688 14.04882812 C5.8320011 14.03789277 0.91601406 14.02067824 -4 14 C-4.33 12.35 -4.66 10.7 -5 9 C-4.01 8.67 -3.02 8.34 -2 8 C-1.19787372 6.12612784 -1.19787372 6.12612784 -0.8125 3.9375 C-0.65394531 3.20402344 -0.49539063 2.47054688 -0.33203125 1.71484375 C-0.22246094 1.14894531 -0.11289062 0.58304687 0 0 Z " fill="#489849" transform="translate(281,283)"/>
<path d="M0 0 C0.66 0 1.32 0 2 0 C3.6875 1.8125 3.6875 1.8125 5 4 C4.67 4.99 4.34 5.98 4 7 C3.34 6.34 2.68 5.68 2 5 C0.45872122 7.8016777 -0.34152969 10.17423788 -0.78125 13.3359375 C-0.96107422 14.56183594 -0.96107422 14.56183594 -1.14453125 15.8125 C-1.32048828 17.0809375 -1.32048828 17.0809375 -1.5 18.375 C-2.26189748 23.81712487 -3.17186414 28.79571 -5 34 C-5.55108876 36.86259997 -5.99663895 39.72803311 -6.4375 42.609375 C-7 45 -7 45 -9 47 C-8.49178936 38.07328921 -7.3589668 29.45538568 -5.625 20.6875 C-5.31175781 19.0159082 -5.31175781 19.0159082 -4.9921875 17.31054688 C-3.81725722 11.26037237 -2.37094146 5.69164603 0 0 Z " fill="#41BF42" transform="translate(103,43)"/>
<path d="M0 0 C6.05266741 -0.10765614 11.7753236 0.16943786 17.75 1.125 C18.54768799 1.25044189 19.34537598 1.37588379 20.16723633 1.50512695 C29.99088392 3.17264814 39.49415611 6.05876832 49 9 C45.04684948 10.16651216 42.57375496 9.58694082 38.5625 8.5625 C31.58431656 6.95664189 25.12616273 6.71579558 18 7 C17.01 7 16.02 7 15 7 C13.66666667 5.66666667 12.33333333 4.33333333 11 3 C8.34280163 2.31822002 8.34280163 2.31822002 5.375 1.875 C3.87066406 1.62363281 3.87066406 1.62363281 2.3359375 1.3671875 C1.56507813 1.24601562 0.79421875 1.12484375 0 1 C0 0.67 0 0.34 0 0 Z " fill="#54A751" transform="translate(320,43)"/>
<path d="M0 0 C1.65 0 3.3 0 5 0 C5.33 0.99 5.66 1.98 6 3 C6.721875 2.731875 7.44375 2.46375 8.1875 2.1875 C11 2 11 2 13.75 4.3125 C16 7 16 7 17 9 C18.32 8.67 19.64 8.34 21 8 C20.4740625 8.86625 20.4740625 8.86625 19.9375 9.75 C18.81273456 11.93510649 18.81273456 11.93510649 19.25 14.1875 C19.85008433 16.19815586 19.85008433 16.19815586 22 17 C21.67 17.99 21.34 18.98 21 20 C20.40574219 19.38253906 19.81148437 18.76507813 19.19921875 18.12890625 C13.73697031 12.5477286 8.18875686 7.54903415 2.0546875 2.71484375 C1.37664062 2.14894531 0.69859375 1.58304688 0 1 C0 0.67 0 0.34 0 0 Z " fill="#30B72D" transform="translate(203,172)"/>
<path d="M0 0 C6.73453646 6.15945245 12.20238756 15.19650462 13 24.375 C13.03553331 25.91625712 13.05031332 27.45915456 13 29 C12.34 28.67 11.68 28.34 11 28 C10.375 25.4375 10.375 25.4375 10 23 C8.35 23.33 6.7 23.66 5 24 C4.26209243 21.13035945 3.9493401 19.24204175 4.5625 16.3125 C4.706875 15.549375 4.85125 14.78625 5 14 C4.34 13.34 3.68 12.68 3 12 C2.30741771 10.00882592 1.64252365 8.0078864 1 6 C0.608125 5.2575 0.21625 4.515 -0.1875 3.75 C-0.455625 3.1725 -0.72375 2.595 -1 2 C-0.67 1.34 -0.34 0.68 0 0 Z " fill="#0DA30E" transform="translate(269,169)"/>
<path d="M0 0 C30.03 0 60.06 0 91 0 C90.67 0.66 90.34 1.32 90 2 C88.96905212 1.99555878 87.93810425 1.99111755 86.87591553 1.98654175 C77.1645198 1.94601435 67.45314122 1.91602457 57.74168015 1.89637566 C52.74881213 1.88593441 47.75601234 1.87176893 42.76318359 1.84912109 C37.94565408 1.82740495 33.12819022 1.81543394 28.31061554 1.81024551 C26.47179379 1.80654756 24.63297566 1.79932646 22.79418182 1.78853989 C20.22045601 1.77404133 17.64700221 1.77202137 15.07324219 1.77294922 C13.9306469 1.76216339 13.9306469 1.76216339 12.76496887 1.75115967 C9.01951758 1.7657894 6.17783102 1.90511662 3 4 C3 3.34 3 2.68 3 2 C2.01 2 1.02 2 0 2 C0 1.34 0 0.68 0 0 Z " fill="#0C760C" transform="translate(106,44)"/>
<path d="M0 0 C0.495 1.98 0.495 1.98 1 4 C0.34 4 -0.32 4 -1 4 C-1.185625 4.7425 -1.37125 5.485 -1.5625 6.25 C-3.60403294 10.15554128 -6.13175096 10.96037778 -10 13 C-10.33 13.66 -10.66 14.32 -11 15 C-12.31403276 15.70394612 -13.6520257 16.36345658 -15 17 C-15.78375 17.495 -16.5675 17.99 -17.375 18.5 C-22.62724056 21.50128032 -26.97241847 22.24110326 -33 22 C-33 21.67 -33 21.34 -33 21 C-32.030625 20.773125 -31.06125 20.54625 -30.0625 20.3125 C-25.97521657 19.16972892 -22.54825015 17.18536067 -18.91796875 15.0234375 C-17 14 -17 14 -15 14 C-15 13.34 -15 12.68 -15 12 C-13.29870251 10.64482856 -11.53714076 9.36477042 -9.75 8.125 C-6.17222208 5.63569949 -2.99144726 3.17663209 0 0 Z " fill="#5CAC5D" transform="translate(367,269)"/>
<path d="M0 0 C5.65403202 5.65403202 5.16691267 16.91582694 5.20654297 24.4909668 C5.17900256 28.66192703 5.11638144 32.83056043 5 37 C4.01 37 3.02 37 2 37 C2 37.99 2 38.98 2 40 C0.02 40 -1.96 40 -4 40 C-3.195625 39.236875 -2.39125 38.47375 -1.5625 37.6875 C2.44302724 33.48658119 2.18250334 29.69881121 2.1875 24.1875 C2.19974609 23.48818359 2.21199219 22.78886719 2.22460938 22.06835938 C2.23712029 17.61030238 1.47137004 14.17176681 0 10 C-0.1953125 7.2265625 -0.1953125 7.2265625 -0.125 4.625 C-0.10695312 3.75101563 -0.08890625 2.87703125 -0.0703125 1.9765625 C-0.04710937 1.32429687 -0.02390625 0.67203125 0 0 Z " fill="#3FAA3F" transform="translate(238,252)"/>
<path d="M0 0 C-8.12192924 4.1717182 -16.45955896 6.45949837 -25.375 8.25 C-26.67727539 8.51272705 -26.67727539 8.51272705 -28.00585938 8.78076172 C-36.7854488 10.47163299 -36.7854488 10.47163299 -40 10 C-40.66 9.01 -41.32 8.02 -42 7 C-41.15695312 6.93941406 -40.31390625 6.87882812 -39.4453125 6.81640625 C-38.34960938 6.73261719 -37.25390625 6.64882813 -36.125 6.5625 C-35.03445313 6.48128906 -33.94390625 6.40007812 -32.8203125 6.31640625 C-30.05271029 6.16998297 -30.05271029 6.16998297 -28 5 C-25.40751328 4.72824182 -22.81551489 4.55427432 -20.21484375 4.37890625 C-19.11849609 4.19134766 -19.11849609 4.19134766 -18 4 C-17.67 3.34 -17.34 2.68 -17 2 C-11.30201576 -0.18220673 -6.05106191 -0.21915315 0 0 Z " fill="#489C42" transform="translate(373,367)"/>
<path d="M0 0 C0.66 0 1.32 0 2 0 C2 1.65 2 3.3 2 5 C2.66 5 3.32 5 4 5 C9.37129841 17.48519362 9.37129841 17.48519362 11 24 C11.33 24 11.66 24 12 24 C12 25.65 12 27.3 12 29 C13.32 29.33 14.64 29.66 16 30 C16 32.64 16 35.28 16 38 C12.2895045 33.83397492 10.18485258 29.49925191 8 24.4375 C7.65259766 23.64335693 7.30519531 22.84921387 6.94726562 22.03100586 C0 5.92227808 0 5.92227808 0 0 Z " fill="#5AC853" transform="translate(100,179)"/>
<path d="M0 0 C0.99 0.33 1.98 0.66 3 1 C4 4 4 4 3 6.875 C1.19980294 12.43160825 2.36620379 18.30439894 3 24 C0.86428078 21.3182162 -0.67101784 18.78133263 -2 15.625 C-3.55049553 12.01711618 -5.20725014 8.49586223 -7 5 C-6.34 5 -5.68 5 -5 5 C-5 5.66 -5 6.32 -5 7 C-4.34 7 -3.68 7 -3 7 C-3 6.34 -3 5.68 -3 5 C-2.34 5 -1.68 5 -1 5 C-0.67 3.35 -0.34 1.7 0 0 Z " fill="#2CA330" transform="translate(381,160)"/>
<path d="M0 0 C0.99 0 1.98 0 3 0 C5.6208532 7.8625596 5.12441928 16.60350064 5.1875 24.8125 C5.20047119 25.71983887 5.21344238 26.62717773 5.22680664 27.56201172 C5.23357612 32.45138459 4.91850985 36.41225904 3 41 C2.67 41 2.34 41 2 41 C2.01047363 40.29093506 2.02094727 39.58187012 2.03173828 38.85131836 C2.29385163 19.33626258 2.29385163 19.33626258 0 0 Z " fill="#73C170" transform="translate(258,247)"/>
<path d="M0 0 C0.33 0 0.66 0 1 0 C4.3014764 16.70389845 4.33108145 33.05542128 4 50 C3.67 50 3.34 50 3 50 C1.19607266 33.37934907 -0.33851904 16.73788564 0 0 Z " fill="#68BB64" transform="translate(474,176)"/>
<path d="M0 0 C4.08378283 0.74250597 8.01939223 1.82923301 12 3 C12 3.66 12 4.32 12 5 C12.66 5 13.32 5 14 5 C14 5.66 14 6.32 14 7 C15.65 7 17.3 7 19 7 C19 7.66 19 8.32 19 9 C19.66 9 20.32 9 21 9 C21.33 9.99 21.66 10.98 22 12 C23.62652316 13.70586575 25.29006566 15.3777546 27 17 C23.69089896 17 23.08230222 16.61300672 20.48828125 14.76953125 C19.81216797 14.29580078 19.13605469 13.82207031 18.43945312 13.33398438 C17.73755859 12.83189453 17.03566406 12.32980469 16.3125 11.8125 C14.93482037 10.83810713 13.55591411 9.86544624 12.17578125 8.89453125 C11.49467285 8.4145166 10.81356445 7.93450195 10.11181641 7.43994141 C7.29022572 5.51604061 4.38659353 3.7422374 1.45776367 1.98706055 C0.97670166 1.66133057 0.49563965 1.33560059 0 1 C0 0.67 0 0.34 0 0 Z " fill="#53C050" transform="translate(176,154)"/>
<path d="M0 0 C6.18401813 1.06572648 10.65698941 2.73482686 16 6 C18.32671865 7.01529541 20.6603447 8.01488198 23 9 C25.68483895 10.29987802 28.34112831 11.64724072 31 13 C29 15 29 15 26.375 15.125 C25.59125 15.08375 24.8075 15.0425 24 15 C24 14.34 24 13.68 24 13 C23.34 13 22.68 13 22 13 C22 12.34 22 11.68 22 11 C21.4225 10.87625 20.845 10.7525 20.25 10.625 C17.97664233 9.99351176 16.0746471 9.11141809 14 8 C14 7.34 14 6.68 14 6 C13.1028125 6.309375 13.1028125 6.309375 12.1875 6.625 C10 7 10 7 7 5 C5.34450469 4.61500109 3.6777567 4.27206865 2 4 C2 3.34 2 2.68 2 2 C1.34 2 0.68 2 0 2 C0 1.34 0 0.68 0 0 Z " fill="#48A646" transform="translate(369,53)"/>
<path d="M0 0 C0.66 0.33 1.32 0.66 2 1 C1.6875 4.375 1.6875 4.375 1 8 C0.01 8.66 -0.98 9.32 -2 10 C-2.721322 12.15505582 -2.721322 12.15505582 -3.0625 14.5625 C-3.47265625 17.00390625 -3.47265625 17.00390625 -4 19 C-4.66 19.33 -5.32 19.66 -6 20 C-6.433125 20.78375 -6.86625 21.5675 -7.3125 22.375 C-9.20600376 25.3204503 -10.92130157 26.41904675 -14 28 C-14 25 -14 25 -12 22 C-11.34 22 -10.68 22 -10 22 C-9.75507813 21.35675781 -9.51015625 20.71351563 -9.2578125 20.05078125 C-7.59995748 16.02971054 -5.73899262 12.1163749 -3.875 8.1875 C-3.50246094 7.39923828 -3.12992187 6.61097656 -2.74609375 5.79882812 C-1.83204476 3.86526295 -0.91620158 1.93254612 0 0 Z " fill="#43A144" transform="translate(383,241)"/>
<path d="M0 0 C-7.40192262 6.44683583 -18.14647795 12.57134435 -28 14 C-28.66 13.34 -29.32 12.68 -30 12 C-28.02 11.67 -26.04 11.34 -24 11 C-23.67 10.01 -23.34 9.02 -23 8 C-21.00531118 7.31760646 -19.00342734 6.65629516 -17 6 C-14.22710574 4.46544576 -11.49809188 2.87385403 -8.78125 1.2421875 C-5.63554816 -0.16277484 -3.40746908 -0.23050526 0 0 Z " fill="#2A8923" transform="translate(402,353)"/>
<path d="M0 0 C1.32 0.33 2.64 0.66 4 1 C4 2.65 4 4.3 4 6 C4.763125 6.144375 5.52625 6.28875 6.3125 6.4375 C9 7 9 7 12 8 C11.67 8.66 11.34 9.32 11 10 C10.65846063 11.66500443 10.32550502 13.33178677 10 15 C9.67 15.99 9.34 16.98 9 18 C7.58298411 16.2711195 6.16640314 14.54188254 4.75 12.8125 C3.96109375 11.84957031 3.1721875 10.88664063 2.359375 9.89453125 C0.22415228 7.27499477 -1.89356361 4.64270803 -4 2 C-2.68 1.67 -1.36 1.34 0 1 C0 0.67 0 0.34 0 0 Z " fill="#3AA43B" transform="translate(364,146)"/>
<path d="M0 0 C1.32 0 2.64 0 4 0 C4 0.66 4 1.32 4 2 C9.68839118 2.9802248 15.17294333 3.11948801 20.9375 3.0625 C21.81212891 3.05798828 22.68675781 3.05347656 23.58789062 3.04882812 C25.72529047 3.03714834 27.86265463 3.01921689 30 3 C29.67 3.66 29.34 4.32 29 5 C24.62218616 5.19218929 20.24409441 5.37092139 15.86523438 5.53710938 C14.37517512 5.59556854 12.88525624 5.65772629 11.39550781 5.72363281 C9.25611936 5.81764056 7.11658132 5.89840682 4.9765625 5.9765625 C3.04417725 6.05511475 3.04417725 6.05511475 1.07275391 6.13525391 C-2 6 -2 6 -4 4 C-2.68 4 -1.36 4 0 4 C0 2.68 0 1.36 0 0 Z " fill="#108213" transform="translate(304,372)"/>
<path d="M0 0 C0.33 0 0.66 0 1 0 C1.6544495 10.6893418 -0.23238133 25.33119091 -7.5 33.734375 C-9 35 -9 35 -11 35 C-10.7421875 34.36320312 -10.484375 33.72640625 -10.21875 33.0703125 C-3.61187157 16.9553557 -3.61187157 16.9553557 0 0 Z " fill="#55B755" transform="translate(259,288)"/>
<path d="M0 0 C0.99 0 1.98 0 3 0 C2.60378931 9.35057223 0.42406618 18.01404305 -2 27 C-2.33 27 -2.66 27 -3 27 C-4.47297107 18.97851899 -3.21603257 12.75611401 -1 5 C-0.64962019 3.33683348 -0.31047315 1.67107609 0 0 Z " fill="#2FA531" transform="translate(286,256)"/>
<path d="M0 0 C3.88971086 3.68755743 7.04332497 7.5600136 10.125 11.9375 C10.55425781 12.53240234 10.98351562 13.12730469 11.42578125 13.74023438 C18 22.99471154 18 22.99471154 18 27 C17.01 27 16.02 27 15 27 C14.74605469 26.45730469 14.49210938 25.91460937 14.23046875 25.35546875 C13.88628906 24.64003906 13.54210937 23.92460937 13.1875 23.1875 C12.85105469 22.47980469 12.51460937 21.77210938 12.16796875 21.04296875 C11.09544435 18.95163982 11.09544435 18.95163982 9.40625 17.4375 C7.27923467 15.26321766 7.3263697 12.93732726 7 10 C6.38125 9.95875 5.7625 9.9175 5.125 9.875 C4.073125 9.441875 4.073125 9.441875 3 9 C1.8125 6.125 1.8125 6.125 1 3 C0.67 2.01 0.34 1.02 0 0 Z " fill="#4EB84C" transform="translate(210,203)"/>
<path d="M0 0 C0.33 0 0.66 0 1 0 C1.37183099 7.56056338 1.37183099 7.56056338 -0.375 9.625 C-0.91125 10.07875 -1.4475 10.5325 -2 11 C-2.28875 11.99 -2.5775 12.98 -2.875 14 C-4 17 -4 17 -6.4375 18.4375 C-9.95786832 20.58406605 -10.41798521 23.2857044 -12 27 C-14.1875 27.9375 -14.1875 27.9375 -16 28 C-15.1875 25.5625 -15.1875 25.5625 -14 23 C-13.01 22.67 -12.02 22.34 -11 22 C-10.3962407 20.12300106 -10.3962407 20.12300106 -10 18 C-9.07617188 16.21655273 -9.07617188 16.21655273 -7.96875 14.43359375 C-7.57042969 13.78326172 -7.17210937 13.13292969 -6.76171875 12.46289062 C-6.34535156 11.79451172 -5.92898437 11.12613281 -5.5 10.4375 C-2.33180499 5.42840024 -2.33180499 5.42840024 0 0 Z " fill="#49B441" transform="translate(247,323)"/>
<path d="M0 0 C0.33 0 0.66 0 1 0 C3.35201004 9.11403891 1.49775482 17.86894311 -0.375 26.875 C-0.59671875 28.00164062 -0.8184375 29.12828125 -1.046875 30.2890625 C-2.73846278 38.60769417 -2.73846278 38.60769417 -5 42 C-5.04241723 39.66705225 -5.04092937 37.33297433 -5 35 C-4.505 34.505 -4.505 34.505 -4 34 C-3.71537202 32.68210541 -3.48572311 31.3522165 -3.28125 30.01953125 C-3.15403564 29.19098633 -3.02682129 28.36244141 -2.89575195 27.50878906 C-2.76515381 26.61901367 -2.63455566 25.72923828 -2.5 24.8125 C-2.3661792 23.91370117 -2.2323584 23.01490234 -2.09448242 22.08886719 C-1.03426567 14.7361101 -0.3563944 7.42283515 0 0 Z " fill="#48A744" transform="translate(475,221)"/>
<path d="M0 0 C0.66 0 1.32 0 2 0 C0.45739541 4.2619396 -2.74475453 6.4472889 -6.25 9.0625 C-6.81074219 9.49626953 -7.37148437 9.93003906 -7.94921875 10.37695312 C-11.4620638 13.04200994 -14.97849395 15.14157675 -19 17 C-19 16.01 -19 15.02 -19 14 C-17.35 13.67 -15.7 13.34 -14 13 C-14 12.34 -14 11.68 -14 11 C-12 9.375 -12 9.375 -10 8 C-11.65 8.33 -13.3 8.66 -15 9 C-14.1875 7.0625 -14.1875 7.0625 -13 5 C-12.01 4.67 -11.02 4.34 -10 4 C-9.01 4.66 -8.02 5.32 -7 6 C-6.21625 5.34 -5.4325 4.68 -4.625 4 C-2 2 -2 2 0 2 C0 1.34 0 0.68 0 0 Z " fill="#16A916" transform="translate(237,357)"/>
<path d="M0 0 C0.33 0 0.66 0 1 0 C1.06058594 1.21816406 1.12117188 2.43632812 1.18359375 3.69140625 C1.26806403 5.31511277 1.35270872 6.93881022 1.4375 8.5625 C1.47681641 9.36236328 1.51613281 10.16222656 1.55664062 10.98632812 C1.74761734 14.58550465 2.0124213 18.08548774 2.53125 21.65625 C3.01833758 25.13080804 3.09864343 28.43158685 3.0625 31.9375 C3.05347656 33.08089844 3.04445313 34.22429687 3.03515625 35.40234375 C3.02355469 36.25957031 3.01195312 37.11679688 3 38 C2.67 38 2.34 38 2 38 C1.34 34.04 0.68 30.08 0 26 C-0.66 26 -1.32 26 -2 26 C-1.84660156 25.04996094 -1.69320313 24.09992188 -1.53515625 23.12109375 C-0.86791205 18.45038433 -0.65596436 13.77201861 -0.4375 9.0625 C-0.39431641 8.18787109 -0.35113281 7.31324219 -0.30664062 6.41210938 C-0.20153099 4.27488005 -0.10036015 2.13745762 0 0 Z " fill="#0BA30B" transform="translate(474,188)"/>
<path d="M0 0 C2.69932956 2.20875488 3.8959571 3.36558152 4.4699707 6.86572266 C4.45538818 7.9541748 4.44080566 9.04262695 4.42578125 10.1640625 C4.41740234 11.36933594 4.40902344 12.57460937 4.40039062 13.81640625 C4.37138672 15.07324219 4.34238281 16.33007812 4.3125 17.625 C4.30283203 18.85863281 4.29316406 20.09226563 4.28320312 21.36328125 C4.08980931 37.18794074 4.08980931 37.18794074 3 42 C2.01 42.495 2.01 42.495 1 43 C1.10828125 41.9790625 1.10828125 41.9790625 1.21875 40.9375 C2.32904289 29.34110758 2.99534095 17.67360815 0.4375 6.234375 C0 4 0 4 0 0 Z " fill="#63B362" transform="translate(385,189)"/>
<path d="M0 0 C1.5 1.125 1.5 1.125 3 3 C3.1875 6.1875 3.1875 6.1875 3 9 C3.66 9 4.32 9 5 9 C5.33 16.26 5.66 23.52 6 31 C5.67 31 5.34 31 5 31 C4.15495567 27.14830593 3.32608365 23.29330126 2.5 19.4375 C2.26152344 18.35146484 2.02304688 17.26542969 1.77734375 16.14648438 C0.60973999 10.65874671 -0.32214907 5.61344746 0 0 Z " fill="#58CC54" transform="translate(94,148)"/>
<path d="M0 0 C1.24592785 3.73778355 0.54425229 4.9910133 -0.8125 8.625 C-1.16957031 9.60726563 -1.52664063 10.58953125 -1.89453125 11.6015625 C-3 14 -3 14 -5 15 C-5.33 15.99 -5.66 16.98 -6 18 C-6.99 18.66 -7.98 19.32 -9 20 C-9.66 20.99 -10.32 21.98 -11 23 C-11.66 22.34 -12.32 21.68 -13 21 C-12.21625 20.29875 -11.4325 19.5975 -10.625 18.875 C-7.84360328 15.82870835 -7.04270398 13.93019194 -6 10 C-4.46575342 4.30136986 -4.46575342 4.30136986 -1.875 2.625 C-1.25625 2.41875 -0.6375 2.2125 0 2 C0 1.34 0 0.68 0 0 Z " fill="#2AA32B" transform="translate(469,263)"/>
<path d="M0 0 C11.55 0 23.1 0 35 0 C35 0.33 35 0.66 35 1 C33.081875 1.2165625 33.081875 1.2165625 31.125 1.4375 C28.74307106 1.70642746 27.15547309 1.92226346 25 3 C21.16417794 3.08891247 17.33221109 2.85582215 13.5 2.6875 C12.42878906 2.65205078 11.35757812 2.61660156 10.25390625 2.58007812 C9.23167969 2.53689453 8.20945312 2.49371094 7.15625 2.44921875 C6.21587891 2.41143311 5.27550781 2.37364746 4.30664062 2.3347168 C2 2 2 2 0 0 Z " fill="#087E0C" transform="translate(280,297)"/>
<path d="M0 0 C3.79144791 0.86169271 5.67853578 1.64378289 8.3125 4.5625 C10.36851495 8.7506786 10.79499574 12.38740409 11 17 C7.89165726 14.07657284 6.03241362 10.70972151 4 7 C3.25247411 5.68608931 2.50257601 4.37352464 1.75 3.0625 C1.1725 2.051875 0.595 1.04125 0 0 Z " fill="#33AF36" transform="translate(239,208)"/>
<path d="M0 0 C6.11485027 -0.09706112 11.93303301 0.22959149 18 1 C18 1.66 18 2.32 18 3 C20.475 3.495 20.475 3.495 23 4 C23 4.99 23 5.98 23 7 C20.33333333 7 17.66666667 7 15 7 C13.66666667 5.66666667 12.33333333 4.33333333 11 3 C8.34280163 2.31822002 8.34280163 2.31822002 5.375 1.875 C3.87066406 1.62363281 3.87066406 1.62363281 2.3359375 1.3671875 C1.56507813 1.24601562 0.79421875 1.12484375 0 1 C0 0.67 0 0.34 0 0 Z " fill="#399D38" transform="translate(320,43)"/>
<path d="M0 0 C1.875 1.5625 1.875 1.5625 3 3 C3 3.66 3 4.32 3 5 C3.66 5.33 4.32 5.66 5 6 C4.67 6.66 4.34 7.32 4 8 C0.58809167 6.38340534 -2.56217535 4.45729895 -5.75 2.4375 C-6.73484375 1.81746094 -7.7196875 1.19742188 -8.734375 0.55859375 C-9.48203125 0.04425781 -10.2296875 -0.47007812 -11 -1 C-11 -1.33 -11 -1.66 -11 -2 C-6.37457988 -3.49645945 -4.07911949 -2.4829423 0 0 Z " fill="#2B9629" transform="translate(356,140)"/>
<path d="M0 0 C1 3 1 3 0.41088867 4.77758789 C-0.08060669 5.74039673 -0.08060669 5.74039673 -0.58203125 6.72265625 C-0.93716797 7.42583984 -1.29230469 8.12902344 -1.65820312 8.85351562 C-2.03912109 9.58248047 -2.42003906 10.31144531 -2.8125 11.0625 C-3.18181641 11.79533203 -3.55113281 12.52816406 -3.93164062 13.28320312 C-6.70453477 18.70453477 -6.70453477 18.70453477 -9 21 C-8.88590407 19.54077307 -8.75834456 18.08259402 -8.625 16.625 C-8.55539062 15.81289063 -8.48578125 15.00078125 -8.4140625 14.1640625 C-8 12 -8 12 -6 10 C-5.5359375 8.7315625 -5.5359375 8.7315625 -5.0625 7.4375 C-4.711875 6.633125 -4.36125 5.82875 -4 5 C-3.01 4.67 -2.02 4.34 -1 4 C-0.26676204 1.98491642 -0.26676204 1.98491642 0 0 Z " fill="#5AB157" transform="translate(464,277)"/>
<path d="M0 0 C-4.84390238 4.23841458 -9.80789528 8.19695186 -15 12 C-15.66 11.67 -16.32 11.34 -17 11 C-17 10.34 -17 9.68 -17 9 C-16.01 9 -15.02 9 -14 9 C-14 8.34 -14 7.68 -14 7 C-13.01 7 -12.02 7 -11 7 C-10.95875 6.236875 -10.9175 5.47375 -10.875 4.6875 C-10 2 -10 2 -7.1875 0.125 C-3.89877266 -1.0357273 -3.14323218 -0.9954705 0 0 Z " fill="#51A44A" transform="translate(422,339)"/>
<path d="M0 0 C2.00720923 0.28674418 4.0085944 0.61866701 6 1 C6 3.97 6 6.94 6 10 C5.67 9.34 5.34 8.68 5 8 C4.195625 8.020625 3.39125 8.04125 2.5625 8.0625 C0 8 0 8 -1 7 C-1.125 4 -1.125 4 -1 1 C-0.67 0.67 -0.34 0.34 0 0 Z " fill="#0CA112" transform="translate(378,148)"/>
<path d="M0 0 C0.33 1.32 0.66 2.64 1 4 C0.34 4 -0.32 4 -1 4 C-1.2784375 5.11375 -1.2784375 5.11375 -1.5625 6.25 C-3.60403294 10.15554128 -6.13175096 10.96037778 -10 13 C-10.33 13.66 -10.66 14.32 -11 15 C-11.66 15 -12.32 15 -13 15 C-10.13691369 8.55805581 -5.34589311 4.36981712 0 0 Z " fill="#44A145" transform="translate(367,269)"/>
<path d="M0 0 C4.68187876 1.31981745 8.00374921 3.19795672 11.875 6.125 C13.32519531 7.21167969 13.32519531 7.21167969 14.8046875 8.3203125 C15.89136719 9.15175781 15.89136719 9.15175781 17 10 C16.34 10.66 15.68 11.32 15 12 C15 11.34 15 10.68 15 10 C13.6078125 10.12375 13.6078125 10.12375 12.1875 10.25 C9 10 9 10 7.125 8.125 C6 6 6 6 6 4 C4.824375 3.814375 4.824375 3.814375 3.625 3.625 C1 3 1 3 -1 1 C-0.67 0.67 -0.34 0.34 0 0 Z " fill="#4DB64E" transform="translate(225,131)"/>
<path d="M0 0 C3.08953668 2.61778108 4.45169104 5.66737721 6.125 9.3125 C6.64320313 10.42238281 7.16140625 11.53226563 7.6953125 12.67578125 C8.9337364 15.8311667 9.58406952 18.64719455 10 22 C9.34 22 8.68 22 8 22 C7.71125 20.865625 7.4225 19.73125 7.125 18.5625 C6.75375 17.386875 6.3825 16.21125 6 15 C5.34 14.67 4.68 14.34 4 14 C2.9296875 11.85546875 2.9296875 11.85546875 1.875 9.1875 C1.52179688 8.31480469 1.16859375 7.44210938 0.8046875 6.54296875 C0 4 0 4 0 0 Z " fill="#57BB56" transform="translate(228,230)"/>
<path d="M0 0 C0.33 0 0.66 0 1 0 C1.02688151 1.64574566 1.04634123 3.29161413 1.0625 4.9375 C1.07410156 5.85402344 1.08570313 6.77054687 1.09765625 7.71484375 C1 10 1 10 0 11 C-0.185625 12.7634375 -0.185625 12.7634375 -0.375 14.5625 C-0.87234178 19.07118861 -2.28082888 22.81419207 -4 27 C-5.30482513 22.68020616 -4.51290918 18.97240402 -3.6875 14.625 C-3.55666016 13.8825 -3.42582031 13.14 -3.29101562 12.375 C-2.5107294 8.10792749 -1.48643093 4.08930779 0 0 Z " fill="#15A117" transform="translate(262,282)"/>
<path d="M0 0 C1.65 0 3.3 0 5 0 C3.53417571 1.96909063 2.06380252 3.93445206 0.5859375 5.89453125 C-0.65968968 7.54820871 -1.89441867 9.21009585 -3.125 10.875 C-4.98837117 12.98682066 -6.40136173 13.97910639 -9 15 C-8.52695318 10.74257863 -6.1136178 8.74294902 -3 6 C-2.01 5.67 -1.02 5.34 0 5 C0 3.35 0 1.7 0 0 Z " fill="#48A447" transform="translate(438,316)"/>
<path d="M0 0 C0.99 0.33 1.98 0.66 3 1 C2.34 3.31 1.68 5.62 1 8 C2.32 8.33 3.64 8.66 5 9 C5.33 10.32 5.66 11.64 6 13 C1.32751069 10.17477391 -1.65996398 7.32239956 -5 3 C-4.360625 2.87625 -3.72125 2.7525 -3.0625 2.625 C-2.0415625 2.315625 -2.0415625 2.315625 -1 2 C-0.67 1.34 -0.34 0.68 0 0 Z " fill="#41C342" transform="translate(149,249)"/>
<path d="M0 0 C-0.33 1.98 -0.66 3.96 -1 6 C-1.66 6 -2.32 6 -3 6 C-3 6.66 -3 7.32 -3 8 C-3.66 8 -4.32 8 -5 8 C-5 7.34 -5 6.68 -5 6 C-5.66 6 -6.32 6 -7 6 C-7.33 4.68 -7.66 3.36 -8 2 C-4.77208445 -0.1519437 -3.71599191 -0.20086443 0 0 Z " fill="#129814" transform="translate(381,159)"/>
<path d="M0 0 C5.00890086 0.61512818 10.00632136 1.2717552 15 2 C12.47211993 4.79872437 10.79588866 6.45773019 7 7 C6.67 6.01 6.34 5.02 6 4 C4.34795544 3.29788106 2.68076231 2.63028587 1 2 C0.67 1.34 0.34 0.68 0 0 Z " fill="#0A980D" transform="translate(346,49)"/>
<path d="M0 0 C0.66 0.33 1.32 0.66 2 1 C1.6875 4.375 1.6875 4.375 1 8 C0.01 8.66 -0.98 9.32 -2 10 C-3.07136051 12.30144109 -4.07989717 14.6340213 -5 17 C-5.66 17 -6.32 17 -7 17 C-5.24009216 11.08030998 -2.60305395 5.58365008 0 0 Z " fill="#58AA56" transform="translate(383,241)"/>
<path d="M0 0 C4.25171681 3.3618226 7.6381774 6.74828319 11 11 C10.67 11.66 10.34 12.32 10 13 C7.5 11.625 7.5 11.625 5 10 C5 9.34 5 8.68 5 8 C3.68 7.67 2.36 7.34 1 7 C0.67 4.69 0.34 2.38 0 0 Z " fill="#48B047" transform="translate(258,156)"/>
<path d="M0 0 C6.15234375 0.5859375 6.15234375 0.5859375 8 1 C8.33 1.66 8.66 2.32 9 3 C10.11375 3.309375 11.2275 3.61875 12.375 3.9375 C17.10426111 5.32366274 17.10426111 5.32366274 19 8 C19 8.66 19 9.32 19 10 C14.37324343 8.6077541 10.35313769 6.70479016 6.125 4.375 C4.97257813 3.74335938 3.82015625 3.11171875 2.6328125 2.4609375 C1.32957031 1.73777344 1.32957031 1.73777344 0 1 C0 0.67 0 0.34 0 0 Z " fill="#6ACB66" transform="translate(157,144)"/>
<path d="M0 0 C1.15224028 0.92961422 2.29659176 1.8690125 3.4375 2.8125 C4.07558594 3.33457031 4.71367187 3.85664063 5.37109375 4.39453125 C7 6 7 6 8 9 C8.66 9 9.32 9 10 9 C9.67 9.66 9.34 10.32 9 11 C5.94082833 10.66009204 4.19598492 10.14301602 1.6875 8.3125 C-0.45553291 5.37575119 -0.32316568 3.55482252 0 0 Z " fill="#4EC34D" transform="translate(177,166)"/>
<path d="M0 0 C3.80635497 3.20760251 7.54563567 6.40746109 11 10 C10.34 11.32 9.68 12.64 9 14 C9 12.68 9 11.36 9 10 C6.03 9.505 6.03 9.505 3 9 C3 7.35 3 5.7 3 4 C1.68 3.67 0.36 3.34 -1 3 C-0.67 2.01 -0.34 1.02 0 0 Z " fill="#3FA140" transform="translate(425,86)"/>
<path d="M0 0 C-0.58007812 0.25394531 -1.16015625 0.50789063 -1.7578125 0.76953125 C-2.53898437 1.11371094 -3.32015625 1.45789063 -4.125 1.8125 C-4.94613281 2.17214844 -5.76726562 2.53179687 -6.61328125 2.90234375 C-9.19532837 4.04939073 -9.19532837 4.04939073 -12.3125 5.875 C-15 7 -15 7 -17.375 6.1875 C-17.91125 5.795625 -18.4475 5.40375 -19 5 C-17.02 4.67 -15.04 4.34 -13 4 C-12.67 3.01 -12.34 2.02 -12 1 C-10.37681021 0.63762737 -8.7513642 0.28534843 -7.125 -0.0625 C-6.22007812 -0.25972656 -5.31515625 -0.45695312 -4.3828125 -0.66015625 C-2 -1 -2 -1 0 0 Z " fill="#59A24F" transform="translate(391,360)"/>
<path d="M0 0 C0.66 0 1.32 0 2 0 C2 0.66 2 1.32 2 2 C2.99 2.33 3.98 2.66 5 3 C5.28875 3.78375 5.5775 4.5675 5.875 5.375 C7.28813394 8.67231253 8.96988127 9.24572073 12 11 C12 11.99 12 12.98 12 14 C12.66 14.66 13.32 15.32 14 16 C13.01 16 12.02 16 11 16 C6.43597983 11.3439633 2.53355481 6.01719267 0 0 Z " fill="#6ACD66" transform="translate(118,221)"/>
<path d="M0 0 C1.65 0 3.3 0 5 0 C5.33 0.99 5.66 1.98 6 3 C6.721875 2.731875 7.44375 2.46375 8.1875 2.1875 C11 2 11 2 13.8125 4.4375 C14.534375 5.283125 15.25625 6.12875 16 7 C14 8 14 8 11.25 7.109375 C10.1775 6.66078125 9.105 6.2121875 8 5.75 C6.39125 5.09257812 6.39125 5.09257812 4.75 4.421875 C2 3 2 3 0 0 Z " fill="#2BB62A" transform="translate(203,172)"/>
<path d="M0 0 C4.29 0.99 8.58 1.98 13 3 C13 3.99 13 4.98 13 6 C12.01 6 11.02 6 10 6 C9.67 6.66 9.34 7.32 9 8 C7.49712782 6.85793642 5.99776716 5.71125043 4.5 4.5625 C3.6646875 3.92441406 2.829375 3.28632813 1.96875 2.62890625 C1.3190625 2.09136719 0.669375 1.55382812 0 1 C0 0.67 0 0.34 0 0 Z " fill="#4EC147" transform="translate(144,138)"/>
<path d="M0 0 C0.33 0 0.66 0 1 0 C1.27833273 7.12841051 0.94199681 14.09512244 -1 21 C-1.66 21.66 -2.32 22.32 -3 23 C-2.53430878 15.1812896 -1.77541538 7.63600985 0 0 Z " fill="#6BCF6A" transform="translate(97,67)"/>
<path d="M0 0 C2.475 0.495 2.475 0.495 5 1 C5 1.66 5 2.32 5 3 C5.598125 3.12375 6.19625 3.2475 6.8125 3.375 C9 4 9 4 12 6 C12 6.66 12 7.32 12 8 C12.66 8 13.32 8 14 8 C14.33 8.99 14.66 9.98 15 11 C12.525 10.01 12.525 10.01 10 9 C10 8.34 10 7.68 10 7 C9.46375 6.938125 8.9275 6.87625 8.375 6.8125 C4.86049298 5.61016865 2.74424626 3.49476933 0 1 C0 0.67 0 0.34 0 0 Z " fill="#66C263" transform="translate(155,262)"/>
<path d="M0 0 C1.9375 0.5625 1.9375 0.5625 4 2 C4.40729228 4.32156597 4.74438677 6.6568787 5 9 C5.66 9.33 6.32 9.66 7 10 C7 10.99 7 11.98 7 13 C7.66 13.33 8.32 13.66 9 14 C8.67 15.65 8.34 17.3 8 19 C6.04325555 16.06488333 4.78410859 13.31445926 3.4375 10.0625 C3.00308594 9.02222656 2.56867188 7.98195312 2.12109375 6.91015625 C1.22985644 4.59666568 0.51834366 2.4169957 0 0 Z " fill="#5CBC5A" transform="translate(250,225)"/>
<path d="M0 0 C0.33 0 0.66 0 1 0 C1.30784708 16.38430584 1.30784708 16.38430584 -1 21 C-1.66 21 -2.32 21 -3 21 C-3.33 22.65 -3.66 24.3 -4 26 C-5.45169732 23.09660535 -4.72348441 21.09125158 -4 18 C-3.34 17.67 -2.68 17.34 -2 17 C-1.52381188 14.12817413 -1.15832403 11.32879853 -0.875 8.4375 C-0.78863281 7.63119141 -0.70226562 6.82488281 -0.61328125 5.99414062 C-0.40056372 3.99695936 -0.19922145 1.99857263 0 0 Z " fill="#31942D" transform="translate(389,214)"/>
<path d="M0 0 C0.66 0 1.32 0 2 0 C3.6875 1.8125 3.6875 1.8125 5 4 C4.67 4.99 4.34 5.98 4 7 C3.34 6.34 2.68 5.68 2 5 C1.34 6.32 0.68 7.64 0 9 C-0.66 9 -1.32 9 -2 9 C-2.33 9.99 -2.66 10.98 -3 12 C-2.14285714 3.42857143 -2.14285714 3.42857143 0 0 Z " fill="#5AC759" transform="translate(103,43)"/>
<path d="M0 0 C0 0.66 0 1.32 0 2 C2.475 2.495 2.475 2.495 5 3 C1.95280133 4.01573289 1.01166996 4.0097124 -2.01171875 3.44140625 C-2.76904297 3.30283203 -3.52636719 3.16425781 -4.30664062 3.02148438 C-5.48516602 2.79428711 -5.48516602 2.79428711 -6.6875 2.5625 C-7.48478516 2.41490234 -8.28207031 2.26730469 -9.10351562 2.11523438 C-11.07025852 1.75015036 -13.03530467 1.37594711 -15 1 C-15 0.67 -15 0.34 -15 0 C-9.76528314 -0.75612577 -5.22745859 -1.2063366 0 0 Z " fill="#67B360" transform="translate(328,129)"/>
<path d="M0 0 C0.33 0 0.66 0 1 0 C1.05845196 3.37492629 1.09374742 6.74972087 1.125 10.125 C1.15013672 11.55199219 1.15013672 11.55199219 1.17578125 13.0078125 C1.21104528 18.08583255 1.03333617 22.24487525 -1 27 C-1.33 27 -1.66 27 -2 27 C-2 24.36 -2 21.72 -2 19 C-1.34 19 -0.68 19 0 19 C0 12.73 0 6.46 0 0 Z " fill="#48AC49" transform="translate(262,261)"/>
<path d="M0 0 C0.66 0 1.32 0 2 0 C1.34 2.97 0.68 5.94 0 9 C-0.66 9 -1.32 9 -2 9 C-2 10.65 -2 12.3 -2 14 C-2.99 13.67 -3.98 13.34 -5 13 C-4.67 11.35 -4.34 9.7 -4 8 C-3.34 8 -2.68 8 -2 8 C-1.34 5.36 -0.68 2.72 0 0 Z " fill="#34A734" transform="translate(281,283)"/>
<path d="M0 0 C1.5625 2.25 1.5625 2.25 2.5625 5.25 C-7.03203303 2.35933941 -7.03203303 2.35933941 -10.4375 -0.75 C-3.09113128 -2.21927374 -3.09113128 -2.21927374 0 0 Z " fill="#4CBD47" transform="translate(192.4375,280.75)"/>
<path d="M0 0 C3.57469625 3.57469625 3.96917283 8.02894421 4.125 12.9375 C4.08375 13.948125 4.0425 14.95875 4 16 C3.34 16 2.68 16 2 16 C-0.27141454 10.60539047 -0.20413361 5.73842251 0 0 Z " fill="#4EB74E" transform="translate(238,252)"/>
<path d="M0 0 C0.66666667 1.33333333 1.33333333 2.66666667 2 4 C2.8353125 5.485 2.8353125 5.485 3.6875 7 C5 10 5 10 4.6875 12.375 C4.460625 12.91125 4.23375 13.4475 4 14 C2.79371992 11.66785852 1.8345262 9.50357861 1 7 C0.34 6.67 -0.32 6.34 -1 6 C-1 6.66 -1 7.32 -1 8 C-1.66 8 -2.32 8 -3 8 C-2.45276317 4.62537285 -1.9451 2.91765 0 0 Z " fill="#09B00B" transform="translate(227,230)"/>
<path d="M0 0 C5.5 1.46666667 5.5 1.46666667 7.875 4 C9 6 9 6 9 8 C9.66 8.33 10.32 8.66 11 9 C11 9.66 11 10.32 11 11 C7.584241 9.55661511 5.63973737 7.75105832 3.25 4.9375 C2.63640625 4.22464844 2.0228125 3.51179687 1.390625 2.77734375 C0 1 0 1 0 0 Z " fill="#69C366" transform="translate(225,192)"/>
<path d="M0 0 C4.47728999 1.193944 6.416661 2.18649957 9 6 C9.99 6.33 10.98 6.66 12 7 C12.33 8.65 12.66 10.3 13 12 C12.56429687 11.62488281 12.12859375 11.24976563 11.6796875 10.86328125 C11.08414063 10.35152344 10.48859375 9.83976563 9.875 9.3125 C8.92560547 8.49652344 8.92560547 8.49652344 7.95703125 7.6640625 C6.17588663 6.14955629 4.37365561 4.66581794 2.5625 3.1875 C1.716875 2.465625 0.87125 1.74375 0 1 C0 0.67 0 0.34 0 0 Z " fill="#61B85F" transform="translate(208,176)"/>
<path d="M0 0 C2.36300349 2.36300349 2.51433444 3.5798498 3.125 6.8125 C3.37636719 8.09060547 3.37636719 8.09060547 3.6328125 9.39453125 C3.995552 11.96843811 4.06523407 14.40461588 4 17 C3.01 17 2.02 17 1 17 C0.67 11.39 0.34 5.78 0 0 Z " fill="#4FAE50" transform="translate(470,159)"/>
<path d="M0 0 C1.32 0.33 2.64 0.66 4 1 C4 3.31 4 5.62 4 8 C0.74456771 7.65120368 -0.01873107 6.97866739 -2.25 4.4375 C-3.11625 3.2309375 -3.11625 3.2309375 -4 2 C-2.68 1.67 -1.36 1.34 0 1 C0 0.67 0 0.34 0 0 Z " fill="#279A29" transform="translate(364,146)"/>
<path d="M0 0 C1 2 1 2 0.41088867 3.77172852 C-0.08060669 4.81478149 -0.08060669 4.81478149 -0.58203125 5.87890625 C-0.93716797 6.63494141 -1.29230469 7.39097656 -1.65820312 8.16992188 C-2.22958008 9.35424805 -2.22958008 9.35424805 -2.8125 10.5625 C-3.18181641 11.35591797 -3.55113281 12.14933594 -3.93164062 12.96679688 C-6.73943452 18.86971726 -6.73943452 18.86971726 -9 20 C-4.35051546 4.35051546 -4.35051546 4.35051546 0 0 Z " fill="#16AA1B" transform="translate(276,299)"/>
<path d="M0 0 C0.66 0.33 1.32 0.66 2 1 C1.175 1.763125 0.35 2.52625 -0.5 3.3125 C-3.34055197 5.75434142 -3.34055197 5.75434142 -3 9 C-5.31 9 -7.62 9 -10 9 C-6.83047153 5.73991357 -3.60062011 2.77762123 0 0 Z " fill="#038106" transform="translate(226,368)"/>
<path d="M0 0 C-1.42152903 3.43536181 -3.07260444 4.80445333 -6 7 C-6.66 8.32 -7.32 9.64 -8 11 C-7.67 7.7 -7.34 4.4 -7 1 C-3 0 -3 0 0 0 Z " fill="#0AB111" transform="translate(271,276)"/>
<path d="M0 0 C1.24834144 2.49668289 0.95155125 3.81329151 0.625 6.5625 C0.53476562 7.36816406 0.44453125 8.17382812 0.3515625 9.00390625 C0 11 0 11 -1 12 C-1.39148761 13.51165654 -1.73972457 15.03469632 -2.0625 16.5625 C-2.23910156 17.38878906 -2.41570312 18.21507812 -2.59765625 19.06640625 C-2.73042969 19.70449219 -2.86320312 20.34257812 -3 21 C-3.33 21 -3.66 21 -4 21 C-2.70020121 2.70020121 -2.70020121 2.70020121 0 0 Z " fill="#12980D" transform="translate(472,244)"/>
<path d="M0 0 C0.33 0 0.66 0 1 0 C2.23839599 6.65637843 2.09139136 13.2471936 2 20 C1.67 20 1.34 20 1 20 C-0.96290189 12.95664616 -0.99939172 7.22533204 0 0 Z " fill="#249822" transform="translate(475,206)"/>
<path d="M0 0 C4.455 0.99 4.455 0.99 9 2 C9 2.99 9 3.98 9 5 C9.66 5.33 10.32 5.66 11 6 C11.33 6.66 11.66 7.32 12 8 C7.61703444 7.51300383 5.96816352 6.16604109 3 3 C2.01 2.67 1.02 2.34 0 2 C0 1.34 0 0.68 0 0 Z " fill="#1CAA1E" transform="translate(214,126)"/>
<path d="M0 0 C4.28477792 2.30718811 7.72291137 4.32966073 11 8 C9.375 8.8125 9.375 8.8125 7 9 C1.45096636 5.19183966 1.45096636 5.19183966 0.125 1.6875 C0.08375 1.130625 0.0425 0.57375 0 0 Z " fill="#52AB52" transform="translate(406,71)"/>
<path d="M0 0 C0.33 0.66 0.66 1.32 1 2 C0.06421005 4.35981813 -0.93347808 6.69631264 -2 9 C-2.6875 7.3125 -2.6875 7.3125 -3 5 C-1.5625 2.25 -1.5625 2.25 0 0 Z M-5 9 C-4.34 9.33 -3.68 9.66 -3 10 C-8.28571429 16.42857143 -8.28571429 16.42857143 -11 19 C-9.52307692 12.47692308 -9.52307692 12.47692308 -6.875 10.0625 C-6.25625 9.711875 -5.6375 9.36125 -5 9 Z " fill="#0EAC10" transform="translate(246,331)"/>
<path d="M0 0 C1.32 0 2.64 0 4 0 C4 0.66 4 1.32 4 2 C4.66 2 5.32 2 6 2 C6.33 2.99 6.66 3.98 7 5 C8.62652316 6.70586575 10.29006566 8.3777546 12 10 C9 10 9 10 6.5625 7.8125 C4.25716434 5.28225355 2.09014094 2.70944196 0 0 Z " fill="#3EBB3D" transform="translate(191,161)"/>
<path d="M0 0 C1.3805087 3.76668598 0.59568159 6.44789173 -0.4375 10.25 C-0.72496094 11.32765625 -1.01242187 12.4053125 -1.30859375 13.515625 C-1.53675781 14.33546875 -1.76492188 15.1553125 -2 16 C-2.33 16 -2.66 16 -3 16 C-3.2493357 14.39884424 -3.47378648 12.79379841 -3.6875 11.1875 C-3.81511719 10.29417969 -3.94273437 9.40085937 -4.07421875 8.48046875 C-4 6 -4 6 -2.58203125 4.36328125 C-2.05996094 3.91339844 -1.53789062 3.46351563 -1 3 C-0.67 2.01 -0.34 1.02 0 0 Z " fill="#63B960" transform="translate(286,267)"/>
<path d="M0 0 C1.32 0 2.64 0 4 0 C4 0.99 4 1.98 4 3 C4.928125 3.1546875 4.928125 3.1546875 5.875 3.3125 C8 4 8 4 10 7 C9.67 7.99 9.34 8.98 9 10 C7.49702124 8.52386015 5.99768715 7.04400843 4.5 5.5625 C3.6646875 4.73878906 2.829375 3.91507813 1.96875 3.06640625 C0 1 0 1 0 0 Z " fill="#49BF43" transform="translate(134,242)"/>
<path d="M0 0 C4.87664009 -0.34833144 7.77050005 0.58314288 12 3 C10 5 10 5 7.375 5.125 C6.59125 5.08375 5.8075 5.0425 5 5 C5 4.34 5 3.68 5 3 C4.34 3 3.68 3 3 3 C3 2.34 3 1.68 3 1 C2.01 0.67 1.02 0.34 0 0 Z " fill="#3AA23F" transform="translate(388,63)"/>
<path d="M0 0 C0.99 0.33 1.98 0.66 3 1 C2.34 2.65 1.68 4.3 1 6 C-1.875 6.125 -1.875 6.125 -5 6 C-5.66 5.34 -6.32 4.68 -7 4 C-4.69 3.34 -2.38 2.68 0 2 C0 1.34 0 0.68 0 0 Z " fill="#05890A" transform="translate(320,370)"/>
<path d="M0 0 C5.01113235 1.4317521 6.94469549 3.98445693 10 8 C7.23723823 7.47731534 4.6739124 6.89130413 2 6 C2 5.34 2 4.68 2 4 C1.34 3.67 0.68 3.34 0 3 C0 2.01 0 1.02 0 0 Z " fill="#4CB74E" transform="translate(242,142)"/>
<path d="M0 0 C2.07834447 2.15001152 2.89626052 4.04992827 3.8125 6.875 C-0.29561428 5.42507731 -3.65605666 3.42092427 -7.1875 0.875 C-7.1875 0.545 -7.1875 0.215 -7.1875 -0.125 C-4.23294778 -1.02777984 -2.80362422 -1.44186389 0 0 Z " fill="#59A959" transform="translate(352.1875,138.125)"/>
<path d="M0 0 C0.66 0 1.32 0 2 0 C2.36923077 5.41538462 2.36923077 5.41538462 0.5 8.375 C0.005 8.91125 -0.49 9.4475 -1 10 C-1.99 9.67 -2.98 9.34 -4 9 C-3.625 7.0625 -3.625 7.0625 -3 5 C-2.34 4.67 -1.68 4.34 -1 4 C-0.34786708 1.97536745 -0.34786708 1.97536745 0 0 Z " fill="#379F33" transform="translate(453,294)"/>
<path d="M0 0 C7.75 0.75 7.75 0.75 10 3 C10 3.99 10 4.98 10 6 C5.56909529 4.79157144 3.01887244 3.48331435 0 0 Z " fill="#4DB646" transform="translate(172,274)"/>
<path d="M0 0 C2.475 0.495 2.475 0.495 5 1 C4.67 4.63 4.34 8.26 4 12 C3.34 12 2.68 12 2 12 C1.875 6.25 1.875 6.25 3 4 C2.01 3.67 1.02 3.34 0 3 C0 2.01 0 1.02 0 0 Z " fill="#1AA418" transform="translate(256,235)"/>
<path d="M0 0 C1.65 1.65 3.3 3.3 5 5 C4.34 5.66 3.68 6.32 3 7 C0.5625 6.1875 0.5625 6.1875 -2 5 C-2.33 4.01 -2.66 3.02 -3 2 C-2.01 1.34 -1.02 0.68 0 0 Z " fill="#10AA10" transform="translate(227,187)"/>
<path d="M0 0 C1.44096586 0.42594588 2.87768712 0.86626633 4.3125 1.3125 C5.11300781 1.55613281 5.91351563 1.79976562 6.73828125 2.05078125 C9.09964573 3.04182023 10.33879993 4.08074943 12 6 C9.36 5.67 6.72 5.34 4 5 C3.67 4.01 3.34 3.02 3 2 C2.01 2.33 1.02 2.66 0 3 C0 2.01 0 1.02 0 0 Z " fill="#54AA53" transform="translate(380,57)"/>
<path d="M0 0 C3.05074215 -0.28780586 5.96183742 -0.45787911 9 0 C11.0625 2.5 11.0625 2.5 12 5 C10.56068883 4.54738642 9.12361001 4.08767021 7.6875 3.625 C6.88699219 3.36976563 6.08648437 3.11453125 5.26171875 2.8515625 C3 2 3 2 0 0 Z " fill="#52A552" transform="translate(333,133)"/>
<path d="M0 0 C3.48331435 3.01887244 4.79157144 5.56909529 6 10 C4.68 9.67 3.36 9.34 2 9 C1.34 6.03 0.68 3.06 0 0 Z " fill="#64B55F" transform="translate(275,179)"/>
<path d="M0 0 C1.58409994 0.11487748 3.16728963 0.24234508 4.75 0.375 C6.07257813 0.47941406 6.07257813 0.47941406 7.421875 0.5859375 C9.99066382 0.99850055 11.75841015 1.71160957 14 3 C8.16605611 4.10643764 5.23420787 4.27137992 0 1 C0 0.67 0 0.34 0 0 Z " fill="#6CB46B" transform="translate(338,45)"/>
<path d="M0 0 C0 3.96018245 -1.18721244 6.5039097 -3 10 C-5.1875 10.9375 -5.1875 10.9375 -7 11 C-6.1875 8.5625 -6.1875 8.5625 -5 6 C-4.01 5.67 -3.02 5.34 -2 5 C-1.33820153 3.01954441 -1.33820153 3.01954441 -1 1 C-0.67 0.67 -0.34 0.34 0 0 Z " fill="#79CB74" transform="translate(238,340)"/>
<path d="M0 0 C1.32 0 2.64 0 4 0 C3.67 2.64 3.34 5.28 3 8 C2.01 8.33 1.02 8.66 0 9 C0 6.03 0 3.06 0 0 Z " fill="#05A506" transform="translate(465,257)"/>
<path d="M0 0 C1.32 0.33 2.64 0.66 4 1 C4 3.64 4 6.28 4 9 C0 4.5 0 4.5 0 0 Z " fill="#42C03B" transform="translate(112,208)"/>
<path d="M0 0 C1.14926266 0.95421808 2.29430541 1.91352045 3.4375 2.875 C4.07558594 3.40867188 4.71367187 3.94234375 5.37109375 4.4921875 C7 6 7 6 8 8 C3.25 7.125 3.25 7.125 1 6 C0.375 2.9375 0.375 2.9375 0 0 Z " fill="#46BB46" transform="translate(187,177)"/>
<path d="M0 0 C3.08089673 2.77280706 4.68775452 5.06326356 6 9 C2.49310059 7.15426347 0.25041941 5.87630016 -1 2 C-0.67 1.34 -0.34 0.68 0 0 Z " fill="#4FB24F" transform="translate(269,169)"/>
<path d="M0 0 C2.62451617 2.62451617 2.5832868 4.4877828 3.125 8.125 C3.29257812 9.22070312 3.46015625 10.31640625 3.6328125 11.4453125 C3.75398438 12.28835937 3.87515625 13.13140625 4 14 C0.68518684 10.68518684 0.02786228 7.84979946 -0.125 3.1875 C-0.063125 1.6096875 -0.063125 1.6096875 0 0 Z " fill="#389A36" transform="translate(467,151)"/>
<path d="M0 0 C0.33 0.99 0.66 1.98 1 3 C-1.06412688 6.09619032 -1.79539841 6.54336291 -5 8 C-5.99 8.66 -6.98 9.32 -8 10 C-6.34908222 5.70761377 -3.26245434 3.1206085 0 0 Z " fill="#66C565" transform="translate(217,366)"/>
<path d="M0 0 C0.66 0 1.32 0 2 0 C1.67 1.65 1.34 3.3 1 5 C-3.455 5.495 -3.455 5.495 -8 6 C-4.93882432 3.37613513 -4.26826873 3 0 3 C0 2.01 0 1.02 0 0 Z " fill="#64BA61" transform="translate(240,289)"/>
<path d="M0 0 C1.98 0.99 1.98 0.99 4 2 C4 2.99 4 3.98 4 5 C4.99 5 5.98 5 7 5 C7.33 6.98 7.66 8.96 8 11 C4.31993178 7.61831569 2.0214155 4.57478244 0 0 Z " fill="#6CC16A" transform="translate(239,208)"/>
<path d="M0 0 C0.99 0.495 0.99 0.495 2 1 C2 2.65 2 4.3 2 6 C3.32 6.33 4.64 6.66 6 7 C6 7.66 6 8.32 6 9 C4.35 9 2.7 9 1 9 C0.08941469 5.92677456 -0.08886184 3.19902639 0 0 Z " fill="#0AB10B" transform="translate(211,206)"/>
<path d="M0 0 C2.475 0.495 2.475 0.495 5 1 C5.33 2.98 5.66 4.96 6 7 C4.125 6.875 4.125 6.875 2 6 C0.75 2.9375 0.75 2.9375 0 0 Z " fill="#38AE36" transform="translate(235,201)"/>
<path d="M0 0 C3.53600465 1.91135386 5.78972846 3.62642766 8 7 C7.01 7.495 7.01 7.495 6 8 C6 7.34 6 6.68 6 6 C4.35 5.67 2.7 5.34 1 5 C0.67 3.35 0.34 1.7 0 0 Z " fill="#4EBD4C" transform="translate(154,146)"/>
<path d="M0 0 C1.9375 0.75 1.9375 0.75 4 2 C4.36162029 3.32594105 4.69728039 4.65938457 5 6 C5.99 6.33 6.98 6.66 8 7 C7.67 7.66 7.34 8.32 7 9 C5.68 8.34 4.36 7.68 3 7 C3 6.01 3 5.02 3 4 C2.34 4 1.68 4 1 4 C0.67 2.68 0.34 1.36 0 0 Z " fill="#61B061" transform="translate(436,98)"/>
<path d="M0 0 C2.97 0 5.94 0 9 0 C8.67 0.66 8.34 1.32 8 2 C5.6859378 2.73075648 3.35171131 3.40138258 1 4 C0.67 2.68 0.34 1.36 0 0 Z " fill="#09880E" transform="translate(207,45)"/>
<path d="M0 0 C0.66 0.33 1.32 0.66 2 1 C-1.3 3.31 -4.6 5.62 -8 8 C-8.33 7.01 -8.66 6.02 -9 5 C-7.35 4.67 -5.7 4.34 -4 4 C-4 3.34 -4 2.68 -4 2 C-2.125 0.9375 -2.125 0.9375 0 0 Z " fill="#18AD18" transform="translate(227,366)"/>
<path d="M0 0 C0.33 0 0.66 0 1 0 C1 2.64 1 5.28 1 8 C-0.65 8.66 -2.3 9.32 -4 10 C-2.66666667 6.66666667 -1.33333333 3.33333333 0 0 Z " fill="#6AC269" transform="translate(247,323)"/>
<path d="M0 0 C0.66 0.33 1.32 0.66 2 1 C1.34 3.64 0.68 6.28 0 9 C-0.99 8.67 -1.98 8.34 -3 8 C-1.125 1.125 -1.125 1.125 0 0 Z " fill="#02A906" transform="translate(283,264)"/>
<path d="M0 0 C0.66 0.33 1.32 0.66 2 1 C2 3 2 3 0.5625 4.5 C0.046875 4.995 -0.46875 5.49 -1 6 C-1.33 6.66 -1.66 7.32 -2 8 C-2.66 8 -3.32 8 -4 8 C-3.40138258 5.64828869 -2.73075648 3.3140622 -2 1 C-1.34 0.67 -0.68 0.34 0 0 Z " fill="#08A90A" transform="translate(276,296)"/>
<path d="M0 0 C0.33 0.99 0.66 1.98 1 3 C-0.8125 6.1875 -0.8125 6.1875 -3 9 C-3.66 9 -4.32 9 -5 9 C-4.6875 7.0625 -4.6875 7.0625 -4 5 C-3.01 4.67 -2.02 4.34 -1 4 C-0.26676204 1.98491642 -0.26676204 1.98491642 0 0 Z " fill="#52A64F" transform="translate(464,277)"/>
<path d="M0 0 C0.33 0.66 0.66 1.32 1 2 C1.99 2 2.98 2 4 2 C4 1.34 4 0.68 4 0 C4.99 0.33 5.98 0.66 7 1 C4.64031256 3.09749995 3.45383006 3.96905704 0.25 4.1875 C-0.86375 4.0946875 -0.86375 4.0946875 -2 4 C-1.34 2.68 -0.68 1.36 0 0 Z " fill="#1DA121" transform="translate(211,374)"/>
<path d="M0 0 C2.125 0.375 2.125 0.375 4 1 C4 1.66 4 2.32 4 3 C2.02 3.66 0.04 4.32 -2 5 C-2 2 -2 2 0 0 Z " fill="#05B20A" transform="translate(225,361)"/>
<path d="M0 0 C1.0625 1.875 1.0625 1.875 2 4 C1.67 4.66 1.34 5.32 1 6 C-0.32 6 -1.64 6 -3 6 C-3 4.68 -3 3.36 -3 2 C-2.01 1.34 -1.02 0.68 0 0 Z " fill="#18A716" transform="translate(251,321)"/>
<path d="M0 0 C0.98726527 2.66561622 1.0275526 3.90126985 0.25 6.6875 C-1 9 -1 9 -4 10 C-2.66666667 6.66666667 -1.33333333 3.33333333 0 0 Z " fill="#75C572" transform="translate(252,313)"/>
<path d="M0 0 C0.99 0.99 1.98 1.98 3 3 C2.01 4.32 1.02 5.64 0 7 C-0.66 6.34 -1.32 5.68 -2 5 C-1.46428571 1.46428571 -1.46428571 1.46428571 0 0 Z " fill="#37C237" transform="translate(133,235)"/>
<path d="M0 0 C3.53586014 3.17320782 5.58578031 5.16743695 6 10 C5.01 9.67 4.02 9.34 3 9 C1.875 6.125 1.875 6.125 1 3 C0.67 2.01 0.34 1.02 0 0 Z " fill="#5EC45D" transform="translate(210,203)"/>
<path d="M0 0 C2.39763185 2.39763185 2.34280586 3.33273498 2.625 6.625 C2.69976562 7.44226563 2.77453125 8.25953125 2.8515625 9.1015625 C2.90054687 9.72804687 2.94953125 10.35453125 3 11 C1 10 1 10 -0.1875 7.1875 C-0.96421451 4.14038924 -1.10096399 2.86250637 0 0 Z " fill="#2EA130" transform="translate(458,129)"/>
<path d="M0 0 C3.1808342 2.12055614 4.31525278 3.63050557 6 7 C5.67 7.66 5.34 8.32 5 9 C4.01 8.67 3.02 8.34 2 8 C2 6.68 2 5.36 2 4 C1.34 4 0.68 4 0 4 C0 2.68 0 1.36 0 0 Z " fill="#55AD59" transform="translate(448,113)"/>
<path d="M0 0 C2.64 1.98 5.28 3.96 8 6 C6 7 6 7 4 6.9375 C2 6 2 6 0.75 2.9375 C0.5025 1.968125 0.255 0.99875 0 0 Z " fill="#57AA56" transform="translate(417,79)"/>
<path d="M0 0 C0.33 0 0.66 0 1 0 C0.67 2.64 0.34 5.28 0 8 C-1.98 8 -3.96 8 -6 8 C-5.195625 7.236875 -4.39125 6.47375 -3.5625 5.6875 C-0.83200976 3.20569102 -0.83200976 3.20569102 0 0 Z " fill="#12B012" transform="translate(240,284)"/>
<path d="M0 0 C0.33 0 0.66 0 1 0 C1.19294408 4.82360189 0.75747614 8.49646738 -1 13 C-1.33 13 -1.66 13 -2 13 C-2.19294408 8.17639811 -1.75747614 4.50353262 0 0 Z " fill="#74B86D" transform="translate(472,250)"/>
<path d="M0 0 C3.36720387 1.39332574 4.9859524 2.9789286 7 6 C5.35 5.67 3.7 5.34 2 5 C2 4.34 2 3.68 2 3 C1.34 3 0.68 3 0 3 C0 2.01 0 1.02 0 0 Z " fill="#5FCA5C" transform="translate(162,153)"/>
<path d="M0 0 C2.03833424 1.2739589 4.03852126 2.61061923 6 4 C6 4.66 6 5.32 6 6 C3.03 5.505 3.03 5.505 0 5 C0 3.35 0 1.7 0 0 Z " fill="#4BAF4D" transform="translate(252,150)"/>
<path d="M0 0 C0.99 0 1.98 0 3 0 C3 1.98 3 3.96 3 6 C1.68 6 0.36 6 -1 6 C-0.67 4.02 -0.34 2.04 0 0 Z " fill="#04A607" transform="translate(449,121)"/>
<path d="M0 0 C0.99 0.33 1.98 0.66 3 1 C3.33 1.99 3.66 2.98 4 4 C1.525 5.485 1.525 5.485 -1 7 C-0.67 4.69 -0.34 2.38 0 0 Z " fill="#07AB09" transform="translate(275,269)"/>
<path d="M0 0 C2.83374881 3.20336822 3.5205537 5.78087253 4 10 C1 8 1 8 0.48828125 6.0546875 C0.32552083 4.03645833 0.16276042 2.01822917 0 0 Z " fill="#73BE6F" transform="translate(281,190)"/>
<path d="M0 0 C2.97903734 2.97903734 4 5.80285329 4 10 C3.01 9.67 2.02 9.34 1 9 C0.67 6.03 0.34 3.06 0 0 Z " fill="#09A110" transform="translate(467,158)"/>
<path d="M0 0 C4 0 4 0 5.75 1.375 C7 3 7 3 7 5 C4.0625 4.1875 4.0625 4.1875 1 3 C0.67 2.01 0.34 1.02 0 0 Z " fill="#60C659" transform="translate(169,149)"/>
<path d="M0 0 C2.50037734 2.17424117 3.43628586 3.73045798 4 7 C2.68 6.67 1.36 6.34 0 6 C0 4.02 0 2.04 0 0 Z " fill="#5FAE5B" transform="translate(454,122)"/>
<path d="M0 0 C0.33 0.99 0.66 1.98 1 3 C-0.32 4.32 -1.64 5.64 -3 7 C-3.66 6.67 -4.32 6.34 -5 6 C-3.35 4.02 -1.7 2.04 0 0 Z " fill="#6ECA68" transform="translate(230,351)"/>
<path d="M0 0 C1.98 0 3.96 0 6 0 C3.31158141 2.25245881 1.35358125 3.88213958 -2 5 C-2 4.34 -2 3.68 -2 3 C-1.34 3 -0.68 3 0 3 C0 2.01 0 1.02 0 0 Z " fill="#6DB163" transform="translate(396,353)"/>
<path d="M0 0 C0.66 0 1.32 0 2 0 C1.67 1.65 1.34 3.3 1 5 C-0.32 5 -1.64 5 -3 5 C-1.625 2.5 -1.625 2.5 0 0 Z " fill="#0E9514" transform="translate(340,347)"/>
<path d="M0 0 C1.32 0.33 2.64 0.66 4 1 C1.69 2.65 -0.62 4.3 -3 6 C-2 2 -2 2 0 0 Z " fill="#5EA856" transform="translate(425,332)"/>
<path d="M0 0 C0.99 0.33 1.98 0.66 3 1 C3.33 3.31 3.66 5.62 4 8 C0 3.375 0 3.375 0 0 Z " fill="#29932D" transform="translate(384,184)"/>
<path d="M0 0 C1.98 0.66 3.96 1.32 6 2 C6.33 3.65 6.66 5.3 7 7 C5.83040013 6.02433888 4.66438823 5.044375 3.5 4.0625 C2.8503125 3.51722656 2.200625 2.97195312 1.53125 2.41015625 C1.0259375 1.94480469 0.520625 1.47945312 0 1 C0 0.67 0 0.34 0 0 Z " fill="#6DC36A" transform="translate(214,181)"/>
<path d="" fill="#FFFFFF" transform="translate(0,0)"/>
<path d="" fill="#FFFFFF" transform="translate(0,0)"/>
<path d="" fill="#FFFFFF" transform="translate(0,0)"/>
<path d="" fill="#FFFFFF" transform="translate(0,0)"/>
<path d="" fill="#FFFFFF" transform="translate(0,0)"/>
<path d="" fill="#FFFFFF" transform="translate(0,0)"/>
<path d="" fill="#FFFFFF" transform="translate(0,0)"/>
<path d="" fill="#FFFFFF" transform="translate(0,0)"/>
<path d="" fill="#FFFFFF" transform="translate(0,0)"/>
<path d="" fill="#FFFFFF" transform="translate(0,0)"/>
<path d="" fill="#FFFFFF" transform="translate(0,0)"/>
<path d="" fill="#FFFFFF" transform="translate(0,0)"/>
<path d="" fill="#FFFFFF" transform="translate(0,0)"/>
<path d="" fill="#FFFFFF" transform="translate(0,0)"/>
<path d="" fill="#FFFFFF" transform="translate(0,0)"/>
<path d="" fill="#FFFFFF" transform="translate(0,0)"/>
<path d="" fill="#FFFFFF" transform="translate(0,0)"/>
<path d="" fill="#FFFFFF" transform="translate(0,0)"/>
<path d="" fill="#FFFFFF" transform="translate(0,0)"/>
<path d="" fill="#FFFFFF" transform="translate(0,0)"/>
<path d="" fill="#FFFFFF" transform="translate(0,0)"/>
<path d="" fill="#FFFFFF" transform="translate(0,0)"/>
<path d="" fill="#FFFFFF" transform="translate(0,0)"/>
<path d="" fill="#FFFFFF" transform="translate(0,0)"/>
<path d="" fill="#FFFFFF" transform="translate(0,0)"/>
<path d="" fill="#FFFFFE" transform="translate(0,0)"/>
<path d="" fill="#FFFFFF" transform="translate(0,0)"/>
<path d="" fill="#FFFFFF" transform="translate(0,0)"/>
<path d="" fill="#FFFFFF" transform="translate(0,0)"/>
<path d="" fill="#FFFFFF" transform="translate(0,0)"/>
<path d="" fill="#FFFFFF" transform="translate(0,0)"/>
<path d="" fill="#FFFFFF" transform="translate(0,0)"/>
<path d="" fill="#FFFFFF" transform="translate(0,0)"/>
<path d="" fill="#FFFFFF" transform="translate(0,0)"/>
<path d="" fill="#FFFFFF" transform="translate(0,0)"/>
<path d="" fill="#FFFFFF" transform="translate(0,0)"/>
<path d="" fill="#FFFFFF" transform="translate(0,0)"/>
<path d="" fill="#FFFFFF" transform="translate(0,0)"/>
<path d="" fill="#FFFFFF" transform="translate(0,0)"/>
<path d="" fill="#FFFFFF" transform="translate(0,0)"/>
<path d="" fill="#FFFFFF" transform="translate(0,0)"/>
<path d="" fill="#FFFFFF" transform="translate(0,0)"/>
<path d="" fill="#FFFFFF" transform="translate(0,0)"/>
<path d="" fill="#FFFFFF" transform="translate(0,0)"/>
<path d="" fill="#FFFFFF" transform="translate(0,0)"/>
<path d="" fill="#FFFFFF" transform="translate(0,0)"/>
<path d="" fill="#FFFFFF" transform="translate(0,0)"/>
<path d="" fill="#FFFFFF" transform="translate(0,0)"/>
<path d="" fill="#FFFFFF" transform="translate(0,0)"/>
<path d="" fill="#FFFFFF" transform="translate(0,0)"/>
<path d="" fill="#FFFFFF" transform="translate(0,0)"/>
<path d="" fill="#FFFFFF" transform="translate(0,0)"/>
<path d="" fill="#FFFFFF" transform="translate(0,0)"/>
<path d="" fill="#FFFFFF" transform="translate(0,0)"/>
<path d="" fill="#FFFFFF" transform="translate(0,0)"/>
<path d="" fill="#FFFFFF" transform="translate(0,0)"/>
<path d="" fill="#FFFFFF" transform="translate(0,0)"/>
</svg>
